<mxfile host="app.diagrams.net" modified="2024-02-21T07:41:03.852Z" agent="Mozilla/5.0 (Windows NT 10.0; Win64; x64) AppleWebKit/537.36 (KHTML, like Gecko) Chrome/121.0.0.0 Safari/537.36" etag="EesJr1EywgqIxvWmmh9t" version="23.1.5" type="device">
  <diagram name="Page-1" id="e56a1550-8fbb-45ad-956c-1786394a9013">
    <mxGraphModel dx="1214" dy="682" grid="1" gridSize="10" guides="1" tooltips="1" connect="1" arrows="1" fold="1" page="1" pageScale="1" pageWidth="1654" pageHeight="1169" background="none" math="0" shadow="0">
      <root>
        <mxCell id="0" />
        <mxCell id="1" parent="0" />
        <mxCell id="UdkjZhPED4S_4okrrKyf-34" value="Project" style="whiteSpace=wrap;html=1;align=center;" parent="1" vertex="1">
          <mxGeometry x="928.29" y="490" width="100" height="40" as="geometry" />
        </mxCell>
        <mxCell id="UdkjZhPED4S_4okrrKyf-42" value="" style="endArrow=none;html=1;rounded=0;entryX=0;entryY=0;entryDx=0;entryDy=0;" parent="1" source="UdkjZhPED4S_4okrrKyf-41" target="UdkjZhPED4S_4okrrKyf-34" edge="1">
          <mxGeometry relative="1" as="geometry">
            <mxPoint x="750.61" y="842.8699999999999" as="sourcePoint" />
            <mxPoint x="1240.78" y="606.87" as="targetPoint" />
            <Array as="points" />
          </mxGeometry>
        </mxCell>
        <mxCell id="UdkjZhPED4S_4okrrKyf-58" value="user_password" style="ellipse;whiteSpace=wrap;html=1;align=center;" parent="1" vertex="1">
          <mxGeometry x="847.0300000000001" y="50" width="100" height="40" as="geometry" />
        </mxCell>
        <mxCell id="UdkjZhPED4S_4okrrKyf-80" value="" style="endArrow=none;html=1;rounded=0;exitX=0.75;exitY=0;exitDx=0;exitDy=0;entryX=0;entryY=1;entryDx=0;entryDy=0;" parent="1" source="UdkjZhPED4S_4okrrKyf-79" target="UdkjZhPED4S_4okrrKyf-58" edge="1">
          <mxGeometry relative="1" as="geometry">
            <mxPoint x="898" y="164" as="sourcePoint" />
            <mxPoint x="649" y="221" as="targetPoint" />
            <Array as="points" />
          </mxGeometry>
        </mxCell>
        <mxCell id="UdkjZhPED4S_4okrrKyf-83" value="user_id" style="ellipse;whiteSpace=wrap;html=1;align=center;fontStyle=4;" parent="1" vertex="1">
          <mxGeometry x="620" y="20" width="100" height="40" as="geometry" />
        </mxCell>
        <mxCell id="UdkjZhPED4S_4okrrKyf-84" value="" style="endArrow=none;html=1;rounded=0;" parent="1" source="UdkjZhPED4S_4okrrKyf-83" target="UdkjZhPED4S_4okrrKyf-79" edge="1">
          <mxGeometry relative="1" as="geometry">
            <mxPoint x="678" y="50" as="sourcePoint" />
            <mxPoint x="613" y="130" as="targetPoint" />
          </mxGeometry>
        </mxCell>
        <mxCell id="UdkjZhPED4S_4okrrKyf-117" value="" style="shape=link;html=1;rounded=0;" parent="1" source="UdkjZhPED4S_4okrrKyf-79" target="SNjWAFohbMlmEdHlztWH-13" edge="1">
          <mxGeometry relative="1" as="geometry">
            <mxPoint x="648" y="130" as="sourcePoint" />
            <mxPoint x="763.1700000000001" y="275" as="targetPoint" />
            <Array as="points">
              <mxPoint x="763" y="340" />
            </Array>
          </mxGeometry>
        </mxCell>
        <mxCell id="UdkjZhPED4S_4okrrKyf-137" value="" style="endArrow=none;html=1;rounded=0;" parent="1" source="UdkjZhPED4S_4okrrKyf-79" target="UdkjZhPED4S_4okrrKyf-141" edge="1">
          <mxGeometry relative="1" as="geometry">
            <mxPoint x="585" y="349.5" as="sourcePoint" />
            <mxPoint x="520" y="397.5" as="targetPoint" />
          </mxGeometry>
        </mxCell>
        <mxCell id="UdkjZhPED4S_4okrrKyf-138" value="" style="resizable=0;html=1;whiteSpace=wrap;align=right;verticalAlign=bottom;" parent="UdkjZhPED4S_4okrrKyf-137" connectable="0" vertex="1">
          <mxGeometry x="1" relative="1" as="geometry" />
        </mxCell>
        <mxCell id="UdkjZhPED4S_4okrrKyf-141" value="username" style="ellipse;whiteSpace=wrap;html=1;align=center;" parent="1" vertex="1">
          <mxGeometry x="737.91" y="20" width="115.17" height="40" as="geometry" />
        </mxCell>
        <mxCell id="UdkjZhPED4S_4okrrKyf-148" value="status" style="ellipse;whiteSpace=wrap;html=1;align=center;" parent="1" vertex="1">
          <mxGeometry x="530.0000000000001" y="200" width="90" height="40" as="geometry" />
        </mxCell>
        <mxCell id="UdkjZhPED4S_4okrrKyf-151" value="" style="endArrow=none;html=1;rounded=0;exitX=1;exitY=0.5;exitDx=0;exitDy=0;entryX=0;entryY=1;entryDx=0;entryDy=0;" parent="1" source="UdkjZhPED4S_4okrrKyf-148" target="UdkjZhPED4S_4okrrKyf-79" edge="1">
          <mxGeometry relative="1" as="geometry">
            <mxPoint x="440" y="347.5" as="sourcePoint" />
            <mxPoint x="600" y="347.5" as="targetPoint" />
          </mxGeometry>
        </mxCell>
        <mxCell id="UdkjZhPED4S_4okrrKyf-162" value="lname" style="ellipse;whiteSpace=wrap;html=1;align=center;" parent="1" vertex="1">
          <mxGeometry x="928.1700000000002" y="250" width="100" height="40" as="geometry" />
        </mxCell>
        <mxCell id="UdkjZhPED4S_4okrrKyf-163" value="" style="endArrow=none;html=1;rounded=0;exitX=1;exitY=1;exitDx=0;exitDy=0;" parent="1" source="w-RnadfowD6wGREnBTG5-8" target="UdkjZhPED4S_4okrrKyf-162" edge="1">
          <mxGeometry relative="1" as="geometry">
            <mxPoint x="1478" y="380.13" as="sourcePoint" />
            <mxPoint x="1390.0692173359948" y="358.5516131733774" as="targetPoint" />
          </mxGeometry>
        </mxCell>
        <mxCell id="UdkjZhPED4S_4okrrKyf-172" value="has" style="shape=rhombus;perimeter=rhombusPerimeter;whiteSpace=wrap;html=1;align=center;" parent="1" vertex="1">
          <mxGeometry x="1284.83" y="610" width="107" height="60" as="geometry" />
        </mxCell>
        <mxCell id="UdkjZhPED4S_4okrrKyf-173" value="" style="endArrow=none;html=1;rounded=0;shape=link;width=-5.384615384615385;exitX=0.912;exitY=1;exitDx=0;exitDy=0;exitPerimeter=0;entryX=0.5;entryY=0;entryDx=0;entryDy=0;" parent="1" source="UdkjZhPED4S_4okrrKyf-34" target="UdkjZhPED4S_4okrrKyf-172" edge="1">
          <mxGeometry relative="1" as="geometry">
            <mxPoint x="948.29" y="510" as="sourcePoint" />
            <mxPoint x="1224.5100000000002" y="580" as="targetPoint" />
            <Array as="points">
              <mxPoint x="1019.29" y="580" />
              <mxPoint x="1338" y="580" />
            </Array>
          </mxGeometry>
        </mxCell>
        <mxCell id="UdkjZhPED4S_4okrrKyf-174" value="" style="resizable=0;html=1;whiteSpace=wrap;align=right;verticalAlign=bottom;" parent="UdkjZhPED4S_4okrrKyf-173" connectable="0" vertex="1">
          <mxGeometry x="1" relative="1" as="geometry">
            <mxPoint x="105" y="170" as="offset" />
          </mxGeometry>
        </mxCell>
        <mxCell id="UdkjZhPED4S_4okrrKyf-175" value="Employee" style="whiteSpace=wrap;html=1;align=center;" parent="1" vertex="1">
          <mxGeometry x="1288.33" y="775" width="100" height="40" as="geometry" />
        </mxCell>
        <mxCell id="UdkjZhPED4S_4okrrKyf-176" value="plan_id" style="ellipse;whiteSpace=wrap;html=1;align=center;fontStyle=4;" parent="1" vertex="1">
          <mxGeometry x="301.19000000000005" y="535" width="100" height="40" as="geometry" />
        </mxCell>
        <mxCell id="UdkjZhPED4S_4okrrKyf-178" value="employee_id" style="ellipse;whiteSpace=wrap;html=1;align=center;fontStyle=4;" parent="1" vertex="1">
          <mxGeometry x="1224.79" y="720" width="100" height="40" as="geometry" />
        </mxCell>
        <mxCell id="UdkjZhPED4S_4okrrKyf-179" value="job_title" style="ellipse;whiteSpace=wrap;html=1;align=center;" parent="1" vertex="1">
          <mxGeometry x="1437" y="805.0000000000001" width="90" height="30" as="geometry" />
        </mxCell>
        <mxCell id="UdkjZhPED4S_4okrrKyf-180" value="" style="endArrow=none;html=1;rounded=0;entryX=0.112;entryY=-0.007;entryDx=0;entryDy=0;entryPerimeter=0;" parent="1" source="UdkjZhPED4S_4okrrKyf-178" target="UdkjZhPED4S_4okrrKyf-175" edge="1">
          <mxGeometry relative="1" as="geometry">
            <mxPoint x="656.0799999999999" y="550" as="sourcePoint" />
            <mxPoint x="816.0799999999998" y="550" as="targetPoint" />
            <Array as="points" />
          </mxGeometry>
        </mxCell>
        <mxCell id="UdkjZhPED4S_4okrrKyf-181" value="" style="endArrow=none;html=1;rounded=0;entryX=1;entryY=0.75;entryDx=0;entryDy=0;" parent="1" source="UdkjZhPED4S_4okrrKyf-179" target="UdkjZhPED4S_4okrrKyf-175" edge="1">
          <mxGeometry relative="1" as="geometry">
            <mxPoint x="616.0799999999999" y="1050" as="sourcePoint" />
            <mxPoint x="1380" y="795" as="targetPoint" />
            <Array as="points" />
          </mxGeometry>
        </mxCell>
        <mxCell id="UdkjZhPED4S_4okrrKyf-185" value="" style="endArrow=none;html=1;rounded=0;entryX=0.5;entryY=1;entryDx=0;entryDy=0;" parent="1" source="UdkjZhPED4S_4okrrKyf-175" target="UdkjZhPED4S_4okrrKyf-172" edge="1">
          <mxGeometry relative="1" as="geometry">
            <mxPoint x="686.0799999999999" y="1050" as="sourcePoint" />
            <mxPoint x="956.0799999999999" y="880" as="targetPoint" />
          </mxGeometry>
        </mxCell>
        <mxCell id="UdkjZhPED4S_4okrrKyf-41" value="project_id" style="ellipse;whiteSpace=wrap;html=1;align=center;fontStyle=4;" parent="1" vertex="1">
          <mxGeometry x="775.6100000000002" y="385" width="90" height="40" as="geometry" />
        </mxCell>
        <mxCell id="UdkjZhPED4S_4okrrKyf-187" value="Material" style="whiteSpace=wrap;html=1;align=center;" parent="1" vertex="1">
          <mxGeometry x="945.17" y="885.0000000000001" width="100" height="40" as="geometry" />
        </mxCell>
        <mxCell id="UdkjZhPED4S_4okrrKyf-190" value="allocates for" style="shape=rhombus;perimeter=rhombusPerimeter;whiteSpace=wrap;html=1;align=center;" parent="1" vertex="1">
          <mxGeometry x="1293.29" y="350" width="80" height="60" as="geometry" />
        </mxCell>
        <mxCell id="UdkjZhPED4S_4okrrKyf-191" value="" style="endArrow=none;html=1;rounded=0;exitX=0.5;exitY=0;exitDx=0;exitDy=0;entryX=1;entryY=0.75;entryDx=0;entryDy=0;" parent="1" source="UdkjZhPED4S_4okrrKyf-190" target="UdkjZhPED4S_4okrrKyf-79" edge="1">
          <mxGeometry relative="1" as="geometry">
            <mxPoint x="1368.46" y="505" as="sourcePoint" />
            <mxPoint x="1333.29" y="260" as="targetPoint" />
            <Array as="points">
              <mxPoint x="1333" y="180" />
            </Array>
          </mxGeometry>
        </mxCell>
        <mxCell id="UdkjZhPED4S_4okrrKyf-192" value="" style="endArrow=none;html=1;rounded=0;exitX=1;exitY=0.5;exitDx=0;exitDy=0;entryX=0.5;entryY=1;entryDx=0;entryDy=0;shape=link;" parent="1" source="UdkjZhPED4S_4okrrKyf-34" target="UdkjZhPED4S_4okrrKyf-190" edge="1">
          <mxGeometry relative="1" as="geometry">
            <mxPoint x="1248.29" y="530" as="sourcePoint" />
            <mxPoint x="1133.29" y="560" as="targetPoint" />
            <Array as="points">
              <mxPoint x="1333.29" y="510" />
            </Array>
          </mxGeometry>
        </mxCell>
        <mxCell id="UdkjZhPED4S_4okrrKyf-206" value="" style="endArrow=none;html=1;rounded=0;exitX=0.25;exitY=0;exitDx=0;exitDy=0;" parent="1" source="UdkjZhPED4S_4okrrKyf-87" target="UdkjZhPED4S_4okrrKyf-176" edge="1">
          <mxGeometry relative="1" as="geometry">
            <mxPoint x="250.41" y="690" as="sourcePoint" />
            <mxPoint x="410.41" y="690" as="targetPoint" />
          </mxGeometry>
        </mxCell>
        <mxCell id="UdkjZhPED4S_4okrrKyf-207" value="" style="endArrow=none;html=1;rounded=0;entryX=0.5;entryY=0;entryDx=0;entryDy=0;shape=link;" parent="1" target="UdkjZhPED4S_4okrrKyf-208" edge="1">
          <mxGeometry relative="1" as="geometry">
            <mxPoint x="995" y="530" as="sourcePoint" />
            <mxPoint x="639.53" y="680" as="targetPoint" />
            <Array as="points" />
          </mxGeometry>
        </mxCell>
        <mxCell id="UdkjZhPED4S_4okrrKyf-208" value="has" style="shape=rhombus;perimeter=rhombusPerimeter;whiteSpace=wrap;html=1;align=center;" parent="1" vertex="1">
          <mxGeometry x="935.17" y="720" width="120" height="60" as="geometry" />
        </mxCell>
        <mxCell id="UdkjZhPED4S_4okrrKyf-212" value="plan_description" style="ellipse;whiteSpace=wrap;html=1;align=center;" parent="1" vertex="1">
          <mxGeometry x="211.53000000000006" y="584" width="130" height="40" as="geometry" />
        </mxCell>
        <mxCell id="UdkjZhPED4S_4okrrKyf-217" value="" style="endArrow=none;html=1;rounded=0;entryX=0;entryY=0.5;entryDx=0;entryDy=0;" parent="1" source="UdkjZhPED4S_4okrrKyf-212" target="UdkjZhPED4S_4okrrKyf-87" edge="1">
          <mxGeometry relative="1" as="geometry">
            <mxPoint x="300" y="640" as="sourcePoint" />
            <mxPoint x="-122.59" y="861" as="targetPoint" />
          </mxGeometry>
        </mxCell>
        <mxCell id="UdkjZhPED4S_4okrrKyf-220" value="CourseShedule" style="whiteSpace=wrap;html=1;align=center;" parent="1" vertex="1">
          <mxGeometry x="1084.83" y="1990" width="100" height="40" as="geometry" />
        </mxCell>
        <mxCell id="UdkjZhPED4S_4okrrKyf-238" value="attends" style="shape=rhombus;perimeter=rhombusPerimeter;whiteSpace=wrap;html=1;align=center;" parent="1" vertex="1">
          <mxGeometry x="257.54" y="1980" width="120" height="60" as="geometry" />
        </mxCell>
        <mxCell id="UdkjZhPED4S_4okrrKyf-239" value="" style="endArrow=none;html=1;rounded=0;exitX=1;exitY=0.5;exitDx=0;exitDy=0;entryX=0;entryY=0.5;entryDx=0;entryDy=0;shape=link;" parent="1" source="UdkjZhPED4S_4okrrKyf-238" target="UdkjZhPED4S_4okrrKyf-220" edge="1">
          <mxGeometry relative="1" as="geometry">
            <mxPoint x="449.83" y="1520.45" as="sourcePoint" />
            <mxPoint x="450" y="2000" as="targetPoint" />
          </mxGeometry>
        </mxCell>
        <mxCell id="UdkjZhPED4S_4okrrKyf-251" value="project_name" style="ellipse;whiteSpace=wrap;html=1;align=center;" parent="1" vertex="1">
          <mxGeometry x="866.5899999999999" y="370" width="97.83" height="40" as="geometry" />
        </mxCell>
        <mxCell id="UdkjZhPED4S_4okrrKyf-254" value="" style="endArrow=none;html=1;rounded=0;exitX=0.25;exitY=0;exitDx=0;exitDy=0;entryX=0.606;entryY=0.978;entryDx=0;entryDy=0;entryPerimeter=0;" parent="1" source="UdkjZhPED4S_4okrrKyf-34" target="UdkjZhPED4S_4okrrKyf-251" edge="1">
          <mxGeometry relative="1" as="geometry">
            <mxPoint x="1220.61" y="692.87" as="sourcePoint" />
            <mxPoint x="1399.61" y="775.87" as="targetPoint" />
          </mxGeometry>
        </mxCell>
        <mxCell id="m46-IYd60HSILahUizfW-3" value="" style="endArrow=none;html=1;rounded=0;exitX=0.293;exitY=0.964;exitDx=0;exitDy=0;exitPerimeter=0;entryX=0.86;entryY=-0.009;entryDx=0;entryDy=0;entryPerimeter=0;" parent="1" source="m46-IYd60HSILahUizfW-7" target="UdkjZhPED4S_4okrrKyf-187" edge="1">
          <mxGeometry relative="1" as="geometry">
            <mxPoint x="507.27000000000004" y="994" as="sourcePoint" />
            <mxPoint x="451.2700000000001" y="1160" as="targetPoint" />
          </mxGeometry>
        </mxCell>
        <mxCell id="m46-IYd60HSILahUizfW-5" value="project_start_date" style="ellipse;whiteSpace=wrap;html=1;align=center;" parent="1" vertex="1">
          <mxGeometry x="1098.76" y="380" width="121.24" height="40" as="geometry" />
        </mxCell>
        <mxCell id="m46-IYd60HSILahUizfW-6" value="" style="endArrow=none;html=1;rounded=0;entryX=1;entryY=0;entryDx=0;entryDy=0;" parent="1" source="m46-IYd60HSILahUizfW-5" target="UdkjZhPED4S_4okrrKyf-34" edge="1">
          <mxGeometry relative="1" as="geometry">
            <mxPoint x="548.11" y="940" as="sourcePoint" />
            <mxPoint x="663.11" y="1060" as="targetPoint" />
          </mxGeometry>
        </mxCell>
        <mxCell id="m46-IYd60HSILahUizfW-7" value="mat_id" style="ellipse;whiteSpace=wrap;html=1;align=center;fontStyle=4" parent="1" vertex="1">
          <mxGeometry x="1042.6699999999998" y="835" width="90.33" height="40" as="geometry" />
        </mxCell>
        <mxCell id="m46-IYd60HSILahUizfW-26" value="&lt;u&gt;course_shedule_id&lt;br&gt;&lt;br&gt;&lt;/u&gt;" style="ellipse;whiteSpace=wrap;html=1;" parent="1" vertex="1">
          <mxGeometry x="1220.17" y="2015" width="122.83" height="40" as="geometry" />
        </mxCell>
        <mxCell id="m46-IYd60HSILahUizfW-27" value="" style="endArrow=none;html=1;rounded=0;entryX=0;entryY=0.5;entryDx=0;entryDy=0;" parent="1" source="UdkjZhPED4S_4okrrKyf-220" target="m46-IYd60HSILahUizfW-26" edge="1">
          <mxGeometry width="50" height="50" relative="1" as="geometry">
            <mxPoint x="1210.17" y="2292" as="sourcePoint" />
            <mxPoint x="1260.17" y="2242" as="targetPoint" />
          </mxGeometry>
        </mxCell>
        <mxCell id="m46-IYd60HSILahUizfW-48" style="edgeStyle=orthogonalEdgeStyle;rounded=0;orthogonalLoop=1;jettySize=auto;html=1;exitX=0.5;exitY=1;exitDx=0;exitDy=0;" parent="1" source="UdkjZhPED4S_4okrrKyf-34" target="UdkjZhPED4S_4okrrKyf-34" edge="1">
          <mxGeometry relative="1" as="geometry" />
        </mxCell>
        <mxCell id="m46-IYd60HSILahUizfW-83" value="week_date" style="ellipse;whiteSpace=wrap;html=1;" parent="1" vertex="1">
          <mxGeometry x="1000" y="2044.99" width="120" height="40" as="geometry" />
        </mxCell>
        <mxCell id="m46-IYd60HSILahUizfW-84" value="start_time" style="ellipse;whiteSpace=wrap;html=1;" parent="1" vertex="1">
          <mxGeometry x="990.17" y="1910" width="120" height="40" as="geometry" />
        </mxCell>
        <mxCell id="m46-IYd60HSILahUizfW-85" value="end_time" style="ellipse;whiteSpace=wrap;html=1;" parent="1" vertex="1">
          <mxGeometry x="1140.1700000000003" y="1890" width="140" height="40" as="geometry" />
        </mxCell>
        <mxCell id="zwFhHf1UqDIjWcC-QOfT-5" value="&lt;font style=&quot;font-size: 17px;&quot;&gt;1&lt;/font&gt;" style="text;html=1;align=center;verticalAlign=middle;resizable=0;points=[];autosize=1;strokeColor=none;fillColor=none;fontStyle=1" parent="1" vertex="1">
          <mxGeometry x="1294.79" y="285" width="30" height="30" as="geometry" />
        </mxCell>
        <mxCell id="zwFhHf1UqDIjWcC-QOfT-6" value="&lt;font style=&quot;font-size: 17px;&quot;&gt;m&lt;/font&gt;" style="text;html=1;align=center;verticalAlign=middle;resizable=0;points=[];autosize=1;strokeColor=none;fillColor=none;fontStyle=1" parent="1" vertex="1">
          <mxGeometry x="1210.75" y="480" width="40" height="30" as="geometry" />
        </mxCell>
        <mxCell id="zwFhHf1UqDIjWcC-QOfT-7" value="&lt;font style=&quot;font-size: 17px;&quot;&gt;n&lt;/font&gt;" style="text;html=1;align=center;verticalAlign=middle;resizable=0;points=[];autosize=1;strokeColor=none;fillColor=none;fontStyle=1" parent="1" vertex="1">
          <mxGeometry x="1111.1200000000001" y="550" width="30" height="30" as="geometry" />
        </mxCell>
        <mxCell id="zwFhHf1UqDIjWcC-QOfT-8" value="&lt;font style=&quot;font-size: 17px;&quot;&gt;m&lt;/font&gt;" style="text;html=1;align=center;verticalAlign=middle;resizable=0;points=[];autosize=1;strokeColor=none;fillColor=none;fontStyle=1" parent="1" vertex="1">
          <mxGeometry x="1305.5" y="690" width="40" height="30" as="geometry" />
        </mxCell>
        <mxCell id="zwFhHf1UqDIjWcC-QOfT-10" value="time" style="ellipse;whiteSpace=wrap;html=1;align=center;" parent="1" vertex="1">
          <mxGeometry x="377" y="2030" width="130" height="40" as="geometry" />
        </mxCell>
        <mxCell id="zwFhHf1UqDIjWcC-QOfT-11" value="attend_date" style="ellipse;whiteSpace=wrap;html=1;align=center;" parent="1" vertex="1">
          <mxGeometry x="157.00000000000003" y="2044.99" width="130" height="40" as="geometry" />
        </mxCell>
        <mxCell id="zwFhHf1UqDIjWcC-QOfT-14" value="" style="endArrow=none;html=1;rounded=0;exitX=0.701;exitY=-0.007;exitDx=0;exitDy=0;exitPerimeter=0;entryX=0.5;entryY=1;entryDx=0;entryDy=0;" parent="1" source="zwFhHf1UqDIjWcC-QOfT-11" target="UdkjZhPED4S_4okrrKyf-238" edge="1">
          <mxGeometry width="50" height="50" relative="1" as="geometry">
            <mxPoint x="619.6600000000001" y="1920" as="sourcePoint" />
            <mxPoint x="669.6600000000001" y="1870" as="targetPoint" />
          </mxGeometry>
        </mxCell>
        <mxCell id="zwFhHf1UqDIjWcC-QOfT-15" value="" style="endArrow=none;html=1;rounded=0;exitX=0.5;exitY=1;exitDx=0;exitDy=0;" parent="1" source="UdkjZhPED4S_4okrrKyf-238" target="zwFhHf1UqDIjWcC-QOfT-10" edge="1">
          <mxGeometry width="50" height="50" relative="1" as="geometry">
            <mxPoint x="619.6600000000001" y="1920" as="sourcePoint" />
            <mxPoint x="669.6600000000001" y="1870" as="targetPoint" />
          </mxGeometry>
        </mxCell>
        <mxCell id="zwFhHf1UqDIjWcC-QOfT-16" value="" style="endArrow=none;html=1;rounded=0;exitX=0.75;exitY=0;exitDx=0;exitDy=0;" parent="1" source="UdkjZhPED4S_4okrrKyf-220" target="m46-IYd60HSILahUizfW-85" edge="1">
          <mxGeometry width="50" height="50" relative="1" as="geometry">
            <mxPoint x="1170.17" y="1912" as="sourcePoint" />
            <mxPoint x="1220.17" y="1862" as="targetPoint" />
          </mxGeometry>
        </mxCell>
        <mxCell id="zwFhHf1UqDIjWcC-QOfT-17" value="" style="endArrow=none;html=1;rounded=0;exitX=0.5;exitY=1;exitDx=0;exitDy=0;entryX=0.25;entryY=0;entryDx=0;entryDy=0;" parent="1" source="m46-IYd60HSILahUizfW-84" target="UdkjZhPED4S_4okrrKyf-220" edge="1">
          <mxGeometry width="50" height="50" relative="1" as="geometry">
            <mxPoint x="1170.17" y="1912" as="sourcePoint" />
            <mxPoint x="1220.17" y="1862" as="targetPoint" />
          </mxGeometry>
        </mxCell>
        <mxCell id="zwFhHf1UqDIjWcC-QOfT-18" value="" style="endArrow=none;html=1;rounded=0;entryX=0.344;entryY=0.957;entryDx=0;entryDy=0;entryPerimeter=0;" parent="1" source="m46-IYd60HSILahUizfW-83" target="UdkjZhPED4S_4okrrKyf-220" edge="1">
          <mxGeometry width="50" height="50" relative="1" as="geometry">
            <mxPoint x="1000.1700000000001" y="2142" as="sourcePoint" />
            <mxPoint x="1220.17" y="1862" as="targetPoint" />
          </mxGeometry>
        </mxCell>
        <mxCell id="CV3Gjt5NdCmsNTR0PnVh-10" value="&lt;font style=&quot;font-size: 17px;&quot;&gt;m&lt;/font&gt;" style="text;html=1;align=center;verticalAlign=middle;resizable=0;points=[];autosize=1;strokeColor=none;fillColor=none;fontStyle=1" parent="1" vertex="1">
          <mxGeometry x="177.09" y="1980" width="40" height="30" as="geometry" />
        </mxCell>
        <mxCell id="CV3Gjt5NdCmsNTR0PnVh-12" value="&lt;font style=&quot;font-size: 17px;&quot;&gt;&lt;b&gt;n&lt;/b&gt;&lt;/font&gt;" style="text;html=1;align=center;verticalAlign=middle;resizable=0;points=[];autosize=1;strokeColor=none;fillColor=none;" parent="1" vertex="1">
          <mxGeometry x="385" y="1970" width="30" height="30" as="geometry" />
        </mxCell>
        <mxCell id="bPdjGQ_32wZ3Fuaz51Pp-12" value="" style="resizable=0;html=1;whiteSpace=wrap;align=right;verticalAlign=bottom;" parent="1" connectable="0" vertex="1">
          <mxGeometry x="1632" y="2044.9866666666667" as="geometry" />
        </mxCell>
        <mxCell id="Ux8aAjsgrgjQNakn-wIU-3" value="fname" style="ellipse;whiteSpace=wrap;html=1;align=center;" parent="1" vertex="1">
          <mxGeometry x="802.9400000000002" y="270" width="100" height="40" as="geometry" />
        </mxCell>
        <mxCell id="Ux8aAjsgrgjQNakn-wIU-4" value="" style="endArrow=none;html=1;rounded=0;" parent="1" source="w-RnadfowD6wGREnBTG5-8" target="Ux8aAjsgrgjQNakn-wIU-3" edge="1">
          <mxGeometry width="50" height="50" relative="1" as="geometry">
            <mxPoint x="763" y="350" as="sourcePoint" />
            <mxPoint x="813" y="300" as="targetPoint" />
          </mxGeometry>
        </mxCell>
        <mxCell id="UdkjZhPED4S_4okrrKyf-79" value="User" style="whiteSpace=wrap;html=1;align=center;" parent="1" vertex="1">
          <mxGeometry x="715.17" y="150" width="100" height="40" as="geometry" />
        </mxCell>
        <mxCell id="Ux8aAjsgrgjQNakn-wIU-7" value="" style="endArrow=none;html=1;rounded=0;entryX=0.048;entryY=0;entryDx=0;entryDy=0;entryPerimeter=0;" parent="1" source="w-RnadfowD6wGREnBTG5-3" target="UdkjZhPED4S_4okrrKyf-79" edge="1">
          <mxGeometry width="50" height="50" relative="1" as="geometry">
            <mxPoint x="444.52031290617833" y="167.4586669509174" as="sourcePoint" />
            <mxPoint x="813" y="300" as="targetPoint" />
            <Array as="points" />
          </mxGeometry>
        </mxCell>
        <mxCell id="OADxER0d2Pgf3RYVHcGn-1" value="project_status" style="ellipse;whiteSpace=wrap;html=1;align=center;fontStyle=0;" parent="1" vertex="1">
          <mxGeometry x="756.27" y="570" width="94.58" height="40" as="geometry" />
        </mxCell>
        <mxCell id="OADxER0d2Pgf3RYVHcGn-2" value="" style="endArrow=none;html=1;rounded=0;entryX=1;entryY=0.5;entryDx=0;entryDy=0;exitX=0;exitY=1;exitDx=0;exitDy=0;" parent="1" source="UdkjZhPED4S_4okrrKyf-34" target="OADxER0d2Pgf3RYVHcGn-1" edge="1">
          <mxGeometry width="50" height="50" relative="1" as="geometry">
            <mxPoint x="883.11" y="860" as="sourcePoint" />
            <mxPoint x="933.1099999999999" y="810" as="targetPoint" />
          </mxGeometry>
        </mxCell>
        <mxCell id="anNYiqL3nOpm_OGNbAXU-3" value="description" style="ellipse;whiteSpace=wrap;html=1;align=center;" parent="1" vertex="1">
          <mxGeometry x="990.1700000000001" y="370" width="98.83" height="40" as="geometry" />
        </mxCell>
        <mxCell id="anNYiqL3nOpm_OGNbAXU-4" value="" style="endArrow=none;html=1;rounded=0;exitX=0.75;exitY=0;exitDx=0;exitDy=0;entryX=0.26;entryY=1;entryDx=0;entryDy=0;entryPerimeter=0;" parent="1" source="UdkjZhPED4S_4okrrKyf-34" target="anNYiqL3nOpm_OGNbAXU-3" edge="1">
          <mxGeometry relative="1" as="geometry">
            <mxPoint x="1276.11" y="1078" as="sourcePoint" />
            <mxPoint x="1329.11" y="1050" as="targetPoint" />
          </mxGeometry>
        </mxCell>
        <mxCell id="ghqXPNyZ9U7g0pVwa6VU-1" value="user_type" style="ellipse;whiteSpace=wrap;html=1;align=center;" parent="1" vertex="1">
          <mxGeometry x="654.85" y="290" width="101.42" height="40" as="geometry" />
        </mxCell>
        <mxCell id="ghqXPNyZ9U7g0pVwa6VU-2" value="" style="endArrow=none;html=1;rounded=0;" parent="1" target="ghqXPNyZ9U7g0pVwa6VU-1" edge="1">
          <mxGeometry width="50" height="50" relative="1" as="geometry">
            <mxPoint x="750" y="190" as="sourcePoint" />
            <mxPoint x="813" y="340" as="targetPoint" />
          </mxGeometry>
        </mxCell>
        <mxCell id="ghqXPNyZ9U7g0pVwa6VU-11" value="" style="endArrow=none;html=1;rounded=0;entryX=0.5;entryY=1;entryDx=0;entryDy=0;exitX=0.5;exitY=0;exitDx=0;exitDy=0;" parent="1" source="UdkjZhPED4S_4okrrKyf-187" target="UdkjZhPED4S_4okrrKyf-208" edge="1">
          <mxGeometry width="50" height="50" relative="1" as="geometry">
            <mxPoint x="1000" y="900" as="sourcePoint" />
            <mxPoint x="899.53" y="820" as="targetPoint" />
          </mxGeometry>
        </mxCell>
        <mxCell id="ghqXPNyZ9U7g0pVwa6VU-45" value="&lt;b style=&quot;&quot;&gt;&lt;font style=&quot;font-size: 19px;&quot;&gt;m&lt;/font&gt;&lt;/b&gt;" style="text;html=1;align=center;verticalAlign=middle;resizable=0;points=[];autosize=1;strokeColor=none;fillColor=none;fontSize=17;" parent="1" vertex="1">
          <mxGeometry x="958.29" y="780" width="40" height="40" as="geometry" />
        </mxCell>
        <mxCell id="ghqXPNyZ9U7g0pVwa6VU-49" value="Can Send" style="shape=rhombus;perimeter=rhombusPerimeter;whiteSpace=wrap;html=1;align=center;" parent="1" vertex="1">
          <mxGeometry x="407" y="150" width="96.44" height="60" as="geometry" />
        </mxCell>
        <mxCell id="ghqXPNyZ9U7g0pVwa6VU-52" value="Feedback" style="whiteSpace=wrap;html=1;align=center;" parent="1" vertex="1">
          <mxGeometry x="195.34" y="155" width="100" height="50" as="geometry" />
        </mxCell>
        <mxCell id="ghqXPNyZ9U7g0pVwa6VU-53" value="" style="endArrow=none;html=1;rounded=0;exitX=0;exitY=0.5;exitDx=0;exitDy=0;entryX=1;entryY=0.5;entryDx=0;entryDy=0;shape=link;" parent="1" source="ghqXPNyZ9U7g0pVwa6VU-49" target="ghqXPNyZ9U7g0pVwa6VU-52" edge="1">
          <mxGeometry width="50" height="50" relative="1" as="geometry">
            <mxPoint x="570.25" y="845" as="sourcePoint" />
            <mxPoint x="140" y="940" as="targetPoint" />
            <Array as="points" />
          </mxGeometry>
        </mxCell>
        <mxCell id="ghqXPNyZ9U7g0pVwa6VU-54" value="&lt;font style=&quot;font-size: 17px;&quot;&gt;1&lt;/font&gt;" style="text;html=1;align=center;verticalAlign=middle;resizable=0;points=[];autosize=1;strokeColor=none;fillColor=none;fontStyle=1" parent="1" vertex="1">
          <mxGeometry x="155.33999999999997" y="1850" width="30" height="30" as="geometry" />
        </mxCell>
        <mxCell id="ghqXPNyZ9U7g0pVwa6VU-55" value="feedback_id" style="ellipse;whiteSpace=wrap;html=1;align=center;fontStyle=4" parent="1" vertex="1">
          <mxGeometry x="144.11" y="235" width="102.91" height="40" as="geometry" />
        </mxCell>
        <mxCell id="ghqXPNyZ9U7g0pVwa6VU-56" value="" style="endArrow=none;html=1;rounded=0;exitX=0.5;exitY=0;exitDx=0;exitDy=0;entryX=0.115;entryY=1.073;entryDx=0;entryDy=0;entryPerimeter=0;" parent="1" source="ghqXPNyZ9U7g0pVwa6VU-55" target="ghqXPNyZ9U7g0pVwa6VU-52" edge="1">
          <mxGeometry width="50" height="50" relative="1" as="geometry">
            <mxPoint x="570.25" y="675" as="sourcePoint" />
            <mxPoint x="620.25" y="625" as="targetPoint" />
          </mxGeometry>
        </mxCell>
        <mxCell id="ghqXPNyZ9U7g0pVwa6VU-60" value="feedback_date" style="ellipse;whiteSpace=wrap;html=1;align=center;" parent="1" vertex="1">
          <mxGeometry x="164.09000000000003" y="100" width="122.91" height="40" as="geometry" />
        </mxCell>
        <mxCell id="ghqXPNyZ9U7g0pVwa6VU-63" value="feedback_comment" style="ellipse;whiteSpace=wrap;html=1;align=center;" parent="1" vertex="1">
          <mxGeometry x="287" y="225" width="120.37" height="40" as="geometry" />
        </mxCell>
        <mxCell id="ghqXPNyZ9U7g0pVwa6VU-64" value="" style="endArrow=none;html=1;rounded=0;exitX=0.25;exitY=0;exitDx=0;exitDy=0;entryX=0.437;entryY=0.964;entryDx=0;entryDy=0;entryPerimeter=0;" parent="1" source="ghqXPNyZ9U7g0pVwa6VU-52" target="ghqXPNyZ9U7g0pVwa6VU-60" edge="1">
          <mxGeometry width="50" height="50" relative="1" as="geometry">
            <mxPoint x="480.25" y="855" as="sourcePoint" />
            <mxPoint x="530.25" y="805" as="targetPoint" />
          </mxGeometry>
        </mxCell>
        <mxCell id="ghqXPNyZ9U7g0pVwa6VU-67" value="" style="endArrow=none;html=1;rounded=0;entryX=0.75;entryY=1;entryDx=0;entryDy=0;exitX=0.266;exitY=0.128;exitDx=0;exitDy=0;exitPerimeter=0;" parent="1" source="ghqXPNyZ9U7g0pVwa6VU-63" target="ghqXPNyZ9U7g0pVwa6VU-52" edge="1">
          <mxGeometry width="50" height="50" relative="1" as="geometry">
            <mxPoint x="70" y="1020" as="sourcePoint" />
            <mxPoint x="530.25" y="805" as="targetPoint" />
          </mxGeometry>
        </mxCell>
        <mxCell id="ghqXPNyZ9U7g0pVwa6VU-93" value="schedule_name" style="ellipse;whiteSpace=wrap;html=1;" parent="1" vertex="1">
          <mxGeometry x="1240.17" y="1930" width="130" height="40" as="geometry" />
        </mxCell>
        <mxCell id="ghqXPNyZ9U7g0pVwa6VU-94" value="" style="endArrow=none;html=1;rounded=0;exitX=1;exitY=0.5;exitDx=0;exitDy=0;entryX=0.061;entryY=0.814;entryDx=0;entryDy=0;entryPerimeter=0;" parent="1" source="UdkjZhPED4S_4okrrKyf-220" target="ghqXPNyZ9U7g0pVwa6VU-93" edge="1">
          <mxGeometry width="50" height="50" relative="1" as="geometry">
            <mxPoint x="1040" y="1890" as="sourcePoint" />
            <mxPoint x="1090" y="1840" as="targetPoint" />
          </mxGeometry>
        </mxCell>
        <mxCell id="ghqXPNyZ9U7g0pVwa6VU-101" value="send" style="shape=rhombus;perimeter=rhombusPerimeter;whiteSpace=wrap;html=1;align=center;" parent="1" vertex="1">
          <mxGeometry x="1197.46" y="1820" width="120" height="60" as="geometry" />
        </mxCell>
        <mxCell id="ghqXPNyZ9U7g0pVwa6VU-102" value="" style="endArrow=none;html=1;rounded=0;jumpStyle=arc;entryX=0;entryY=0.75;entryDx=0;entryDy=0;shape=link;" parent="1" source="ghqXPNyZ9U7g0pVwa6VU-49" target="UdkjZhPED4S_4okrrKyf-79" edge="1">
          <mxGeometry width="50" height="50" relative="1" as="geometry">
            <mxPoint x="630" y="1880" as="sourcePoint" />
            <mxPoint x="810" y="1260" as="targetPoint" />
            <Array as="points" />
          </mxGeometry>
        </mxCell>
        <mxCell id="ghqXPNyZ9U7g0pVwa6VU-103" value="&lt;font style=&quot;font-size: 17px;&quot;&gt;1&lt;/font&gt;" style="text;html=1;align=center;verticalAlign=middle;resizable=0;points=[];autosize=1;strokeColor=none;fillColor=none;fontStyle=1" parent="1" vertex="1">
          <mxGeometry x="1317.46" y="1820" width="30" height="30" as="geometry" />
        </mxCell>
        <mxCell id="ghqXPNyZ9U7g0pVwa6VU-104" value="&lt;font style=&quot;font-size: 17px;&quot;&gt;m&lt;/font&gt;" style="text;html=1;align=center;verticalAlign=middle;resizable=0;points=[];autosize=1;strokeColor=none;fillColor=none;fontStyle=1" parent="1" vertex="1">
          <mxGeometry x="1154.8300000000002" y="1810" width="40" height="30" as="geometry" />
        </mxCell>
        <mxCell id="ghqXPNyZ9U7g0pVwa6VU-106" value="adds" style="shape=rhombus;perimeter=rhombusPerimeter;whiteSpace=wrap;html=1;align=center;" parent="1" vertex="1">
          <mxGeometry x="185.34" y="2170" width="120" height="60" as="geometry" />
        </mxCell>
        <mxCell id="ghqXPNyZ9U7g0pVwa6VU-107" value="status" style="ellipse;whiteSpace=wrap;html=1;align=center;" parent="1" vertex="1">
          <mxGeometry x="282" y="2070" width="130" height="40" as="geometry" />
        </mxCell>
        <mxCell id="ghqXPNyZ9U7g0pVwa6VU-108" value="" style="endArrow=none;html=1;rounded=0;exitX=0.5;exitY=1;exitDx=0;exitDy=0;entryX=0.5;entryY=0;entryDx=0;entryDy=0;" parent="1" source="UdkjZhPED4S_4okrrKyf-238" target="ghqXPNyZ9U7g0pVwa6VU-107" edge="1">
          <mxGeometry width="50" height="50" relative="1" as="geometry">
            <mxPoint x="335" y="2070" as="sourcePoint" />
            <mxPoint x="417" y="2096" as="targetPoint" />
          </mxGeometry>
        </mxCell>
        <mxCell id="ghqXPNyZ9U7g0pVwa6VU-109" value="Message" style="whiteSpace=wrap;html=1;align=center;" parent="1" vertex="1">
          <mxGeometry x="391.99999999999994" y="2180" width="100" height="40" as="geometry" />
        </mxCell>
        <mxCell id="ghqXPNyZ9U7g0pVwa6VU-110" value="" style="endArrow=none;html=1;rounded=0;exitX=1;exitY=0.5;exitDx=0;exitDy=0;entryX=0;entryY=0.5;entryDx=0;entryDy=0;shape=link;" parent="1" source="ghqXPNyZ9U7g0pVwa6VU-106" target="ghqXPNyZ9U7g0pVwa6VU-109" edge="1">
          <mxGeometry width="50" height="50" relative="1" as="geometry">
            <mxPoint x="440" y="2140" as="sourcePoint" />
            <mxPoint x="490" y="2090" as="targetPoint" />
          </mxGeometry>
        </mxCell>
        <mxCell id="ghqXPNyZ9U7g0pVwa6VU-111" value="&lt;font style=&quot;font-size: 17px;&quot;&gt;1&lt;/font&gt;" style="text;html=1;align=center;verticalAlign=middle;resizable=0;points=[];autosize=1;strokeColor=none;fillColor=none;fontStyle=1" parent="1" vertex="1">
          <mxGeometry x="135.51" y="2160" width="30" height="30" as="geometry" />
        </mxCell>
        <mxCell id="ghqXPNyZ9U7g0pVwa6VU-112" value="&lt;font style=&quot;font-size: 17px;&quot;&gt;&lt;b&gt;m&lt;/b&gt;&lt;/font&gt;" style="text;html=1;align=center;verticalAlign=middle;resizable=0;points=[];autosize=1;strokeColor=none;fillColor=none;" parent="1" vertex="1">
          <mxGeometry x="287.54" y="2170" width="40" height="30" as="geometry" />
        </mxCell>
        <mxCell id="ghqXPNyZ9U7g0pVwa6VU-113" value="message_date" style="ellipse;whiteSpace=wrap;html=1;align=center;" parent="1" vertex="1">
          <mxGeometry x="432.00000000000006" y="2250" width="130" height="40" as="geometry" />
        </mxCell>
        <mxCell id="ghqXPNyZ9U7g0pVwa6VU-114" value="content" style="ellipse;whiteSpace=wrap;html=1;align=center;" parent="1" vertex="1">
          <mxGeometry x="277" y="2260" width="130" height="40" as="geometry" />
        </mxCell>
        <mxCell id="ghqXPNyZ9U7g0pVwa6VU-115" value="&lt;u&gt;message_id&lt;/u&gt;" style="ellipse;whiteSpace=wrap;html=1;align=center;" parent="1" vertex="1">
          <mxGeometry x="122.53999999999999" y="2250" width="130" height="40" as="geometry" />
        </mxCell>
        <mxCell id="ghqXPNyZ9U7g0pVwa6VU-116" value="" style="endArrow=none;html=1;rounded=0;exitX=0.645;exitY=1.038;exitDx=0;exitDy=0;entryX=0.365;entryY=0.045;entryDx=0;entryDy=0;entryPerimeter=0;exitPerimeter=0;" parent="1" source="ghqXPNyZ9U7g0pVwa6VU-109" target="ghqXPNyZ9U7g0pVwa6VU-113" edge="1">
          <mxGeometry width="50" height="50" relative="1" as="geometry">
            <mxPoint x="880" y="2090" as="sourcePoint" />
            <mxPoint x="930" y="2040" as="targetPoint" />
          </mxGeometry>
        </mxCell>
        <mxCell id="ghqXPNyZ9U7g0pVwa6VU-117" value="" style="endArrow=none;html=1;rounded=0;exitX=0.25;exitY=1;exitDx=0;exitDy=0;" parent="1" source="ghqXPNyZ9U7g0pVwa6VU-109" target="ghqXPNyZ9U7g0pVwa6VU-114" edge="1">
          <mxGeometry width="50" height="50" relative="1" as="geometry">
            <mxPoint x="880" y="2090" as="sourcePoint" />
            <mxPoint x="930" y="2040" as="targetPoint" />
          </mxGeometry>
        </mxCell>
        <mxCell id="ghqXPNyZ9U7g0pVwa6VU-118" value="" style="endArrow=none;html=1;rounded=0;exitX=0.704;exitY=-0.025;exitDx=0;exitDy=0;exitPerimeter=0;entryX=0.1;entryY=0.962;entryDx=0;entryDy=0;entryPerimeter=0;" parent="1" source="ghqXPNyZ9U7g0pVwa6VU-115" target="ghqXPNyZ9U7g0pVwa6VU-109" edge="1">
          <mxGeometry width="50" height="50" relative="1" as="geometry">
            <mxPoint x="880" y="2090" as="sourcePoint" />
            <mxPoint x="930" y="2040" as="targetPoint" />
          </mxGeometry>
        </mxCell>
        <mxCell id="ghqXPNyZ9U7g0pVwa6VU-119" value="CourseWork" style="whiteSpace=wrap;html=1;align=center;" parent="1" vertex="1">
          <mxGeometry x="935.17" y="2160" width="100" height="40" as="geometry" />
        </mxCell>
        <mxCell id="ghqXPNyZ9U7g0pVwa6VU-121" value="manage" style="shape=rhombus;perimeter=rhombusPerimeter;whiteSpace=wrap;html=1;align=center;" parent="1" vertex="1">
          <mxGeometry x="1308.27" y="2150" width="120" height="60" as="geometry" />
        </mxCell>
        <mxCell id="ghqXPNyZ9U7g0pVwa6VU-122" value="" style="endArrow=none;html=1;rounded=0;entryX=0;entryY=0.5;entryDx=0;entryDy=0;exitX=1;exitY=0.5;exitDx=0;exitDy=0;shape=link;" parent="1" source="ghqXPNyZ9U7g0pVwa6VU-119" target="ghqXPNyZ9U7g0pVwa6VU-121" edge="1">
          <mxGeometry width="50" height="50" relative="1" as="geometry">
            <mxPoint x="880" y="2050" as="sourcePoint" />
            <mxPoint x="930" y="2000" as="targetPoint" />
          </mxGeometry>
        </mxCell>
        <mxCell id="ghqXPNyZ9U7g0pVwa6VU-123" value="&lt;font style=&quot;font-size: 17px;&quot;&gt;1&lt;/font&gt;" style="text;html=1;align=center;verticalAlign=middle;resizable=0;points=[];autosize=1;strokeColor=none;fillColor=none;fontStyle=1" parent="1" vertex="1">
          <mxGeometry x="1437" y="2190" width="30" height="30" as="geometry" />
        </mxCell>
        <mxCell id="ghqXPNyZ9U7g0pVwa6VU-124" value="&lt;font style=&quot;font-size: 17px;&quot;&gt;m&lt;/font&gt;" style="text;html=1;align=center;verticalAlign=middle;resizable=0;points=[];autosize=1;strokeColor=none;fillColor=none;fontStyle=1" parent="1" vertex="1">
          <mxGeometry x="1238.76" y="2190" width="40" height="30" as="geometry" />
        </mxCell>
        <mxCell id="ghqXPNyZ9U7g0pVwa6VU-125" value="deadline" style="ellipse;whiteSpace=wrap;html=1;" parent="1" vertex="1">
          <mxGeometry x="927.67" y="2090" width="115" height="40" as="geometry" />
        </mxCell>
        <mxCell id="ghqXPNyZ9U7g0pVwa6VU-126" value="coursework_id" style="ellipse;whiteSpace=wrap;html=1;fontStyle=4" parent="1" vertex="1">
          <mxGeometry x="787.17" y="2250" width="130" height="40" as="geometry" />
        </mxCell>
        <mxCell id="ghqXPNyZ9U7g0pVwa6VU-127" value="" style="endArrow=none;html=1;rounded=0;entryX=0;entryY=1;entryDx=0;entryDy=0;" parent="1" source="ghqXPNyZ9U7g0pVwa6VU-126" target="ghqXPNyZ9U7g0pVwa6VU-119" edge="1">
          <mxGeometry width="50" height="50" relative="1" as="geometry">
            <mxPoint x="880" y="2120" as="sourcePoint" />
            <mxPoint x="930" y="2070" as="targetPoint" />
          </mxGeometry>
        </mxCell>
        <mxCell id="ghqXPNyZ9U7g0pVwa6VU-128" value="" style="endArrow=none;html=1;rounded=0;exitX=0.349;exitY=0.053;exitDx=0;exitDy=0;exitPerimeter=0;entryX=0.5;entryY=1;entryDx=0;entryDy=0;" parent="1" source="ghqXPNyZ9U7g0pVwa6VU-119" target="ghqXPNyZ9U7g0pVwa6VU-125" edge="1">
          <mxGeometry width="50" height="50" relative="1" as="geometry">
            <mxPoint x="880" y="2120" as="sourcePoint" />
            <mxPoint x="930" y="2070" as="targetPoint" />
          </mxGeometry>
        </mxCell>
        <mxCell id="ghqXPNyZ9U7g0pVwa6VU-130" value="has" style="shape=rhombus;perimeter=rhombusPerimeter;whiteSpace=wrap;html=1;align=center;" parent="1" vertex="1">
          <mxGeometry x="1340" y="2080" width="120" height="60" as="geometry" />
        </mxCell>
        <mxCell id="ghqXPNyZ9U7g0pVwa6VU-132" value="&lt;font style=&quot;font-size: 17px;&quot;&gt;1&lt;/font&gt;" style="text;html=1;align=center;verticalAlign=middle;resizable=0;points=[];autosize=1;strokeColor=none;fillColor=none;fontStyle=1" parent="1" vertex="1">
          <mxGeometry x="1355" y="2055" width="30" height="30" as="geometry" />
        </mxCell>
        <mxCell id="ghqXPNyZ9U7g0pVwa6VU-133" value="&lt;font style=&quot;font-size: 17px;&quot;&gt;m&lt;/font&gt;" style="text;html=1;align=center;verticalAlign=middle;resizable=0;points=[];autosize=1;strokeColor=none;fillColor=none;fontStyle=1" parent="1" vertex="1">
          <mxGeometry x="1250.17" y="2110" width="40" height="30" as="geometry" />
        </mxCell>
        <mxCell id="ghqXPNyZ9U7g0pVwa6VU-136" value="submit" style="shape=rhombus;perimeter=rhombusPerimeter;whiteSpace=wrap;html=1;align=center;" parent="1" vertex="1">
          <mxGeometry x="687" y="2115" width="120" height="60" as="geometry" />
        </mxCell>
        <mxCell id="ghqXPNyZ9U7g0pVwa6VU-137" value="" style="endArrow=none;html=1;rounded=0;entryX=0;entryY=0.5;entryDx=0;entryDy=0;exitX=1;exitY=0.5;exitDx=0;exitDy=0;shape=link;" parent="1" source="ghqXPNyZ9U7g0pVwa6VU-136" target="ghqXPNyZ9U7g0pVwa6VU-119" edge="1">
          <mxGeometry width="50" height="50" relative="1" as="geometry">
            <mxPoint x="750" y="2220" as="sourcePoint" />
            <mxPoint x="500" y="2150" as="targetPoint" />
            <Array as="points">
              <mxPoint x="807" y="2180" />
            </Array>
          </mxGeometry>
        </mxCell>
        <mxCell id="ghqXPNyZ9U7g0pVwa6VU-138" value="&lt;font style=&quot;font-size: 17px;&quot;&gt;m&lt;/font&gt;" style="text;html=1;align=center;verticalAlign=middle;resizable=0;points=[];autosize=1;strokeColor=none;fillColor=none;fontStyle=1" parent="1" vertex="1">
          <mxGeometry x="810" y="2140" width="40" height="30" as="geometry" />
        </mxCell>
        <mxCell id="ghqXPNyZ9U7g0pVwa6VU-139" value="&lt;font style=&quot;font-size: 17px;&quot;&gt;n&lt;/font&gt;" style="text;html=1;align=center;verticalAlign=middle;resizable=0;points=[];autosize=1;strokeColor=none;fillColor=none;fontStyle=1" parent="1" vertex="1">
          <mxGeometry x="637.17" y="2120" width="30" height="30" as="geometry" />
        </mxCell>
        <mxCell id="ghqXPNyZ9U7g0pVwa6VU-141" value="coursework_content" style="ellipse;whiteSpace=wrap;html=1;" parent="1" vertex="1">
          <mxGeometry x="1050.1700000000003" y="2260" width="140" height="40" as="geometry" />
        </mxCell>
        <mxCell id="ghqXPNyZ9U7g0pVwa6VU-142" value="" style="endArrow=none;html=1;rounded=0;entryX=0.281;entryY=0.062;entryDx=0;entryDy=0;entryPerimeter=0;exitX=0.75;exitY=1;exitDx=0;exitDy=0;" parent="1" source="ghqXPNyZ9U7g0pVwa6VU-119" target="ghqXPNyZ9U7g0pVwa6VU-141" edge="1">
          <mxGeometry width="50" height="50" relative="1" as="geometry">
            <mxPoint x="1010" y="2250" as="sourcePoint" />
            <mxPoint x="880" y="2100" as="targetPoint" />
          </mxGeometry>
        </mxCell>
        <mxCell id="ghqXPNyZ9U7g0pVwa6VU-143" value="date" style="ellipse;whiteSpace=wrap;html=1;" parent="1" vertex="1">
          <mxGeometry x="929.83" y="2250" width="92.17" height="40" as="geometry" />
        </mxCell>
        <mxCell id="ghqXPNyZ9U7g0pVwa6VU-144" value="" style="endArrow=none;html=1;rounded=0;" parent="1" source="ghqXPNyZ9U7g0pVwa6VU-143" target="ghqXPNyZ9U7g0pVwa6VU-119" edge="1">
          <mxGeometry width="50" height="50" relative="1" as="geometry">
            <mxPoint x="830" y="2150" as="sourcePoint" />
            <mxPoint x="880" y="2100" as="targetPoint" />
          </mxGeometry>
        </mxCell>
        <mxCell id="ghqXPNyZ9U7g0pVwa6VU-145" value="coursework_file" style="ellipse;whiteSpace=wrap;html=1;" parent="1" vertex="1">
          <mxGeometry x="1098.7600000000002" y="2210" width="140" height="40" as="geometry" />
        </mxCell>
        <mxCell id="ghqXPNyZ9U7g0pVwa6VU-146" value="" style="endArrow=none;html=1;rounded=0;entryX=0;entryY=0;entryDx=0;entryDy=0;exitX=1;exitY=0.75;exitDx=0;exitDy=0;" parent="1" source="ghqXPNyZ9U7g0pVwa6VU-119" target="ghqXPNyZ9U7g0pVwa6VU-145" edge="1">
          <mxGeometry width="50" height="50" relative="1" as="geometry">
            <mxPoint x="830" y="2170" as="sourcePoint" />
            <mxPoint x="880" y="2120" as="targetPoint" />
          </mxGeometry>
        </mxCell>
        <mxCell id="ghqXPNyZ9U7g0pVwa6VU-147" value="uploaded_content" style="ellipse;whiteSpace=wrap;html=1;align=center;" parent="1" vertex="1">
          <mxGeometry x="515" y="2170" width="130" height="40" as="geometry" />
        </mxCell>
        <mxCell id="ghqXPNyZ9U7g0pVwa6VU-148" value="uploaded_file" style="ellipse;whiteSpace=wrap;html=1;align=center;" parent="1" vertex="1">
          <mxGeometry x="680" y="2040" width="130" height="40" as="geometry" />
        </mxCell>
        <mxCell id="ghqXPNyZ9U7g0pVwa6VU-149" value="" style="endArrow=none;html=1;rounded=0;entryX=0.5;entryY=1;entryDx=0;entryDy=0;exitX=0.5;exitY=0;exitDx=0;exitDy=0;" parent="1" source="ghqXPNyZ9U7g0pVwa6VU-136" target="ghqXPNyZ9U7g0pVwa6VU-148" edge="1">
          <mxGeometry width="50" height="50" relative="1" as="geometry">
            <mxPoint x="830" y="2170" as="sourcePoint" />
            <mxPoint x="880" y="2120" as="targetPoint" />
          </mxGeometry>
        </mxCell>
        <mxCell id="ghqXPNyZ9U7g0pVwa6VU-150" value="" style="endArrow=none;html=1;rounded=0;exitX=1;exitY=0.5;exitDx=0;exitDy=0;entryX=0.5;entryY=1;entryDx=0;entryDy=0;" parent="1" source="ghqXPNyZ9U7g0pVwa6VU-147" target="ghqXPNyZ9U7g0pVwa6VU-136" edge="1">
          <mxGeometry width="50" height="50" relative="1" as="geometry">
            <mxPoint x="830" y="2170" as="sourcePoint" />
            <mxPoint x="880" y="2120" as="targetPoint" />
          </mxGeometry>
        </mxCell>
        <mxCell id="ghqXPNyZ9U7g0pVwa6VU-151" value="uploaded_date" style="ellipse;whiteSpace=wrap;html=1;align=center;" parent="1" vertex="1">
          <mxGeometry x="567" y="2230" width="130" height="40" as="geometry" />
        </mxCell>
        <mxCell id="ghqXPNyZ9U7g0pVwa6VU-152" value="" style="endArrow=none;html=1;rounded=0;entryX=0.5;entryY=0;entryDx=0;entryDy=0;exitX=0.5;exitY=1;exitDx=0;exitDy=0;" parent="1" source="ghqXPNyZ9U7g0pVwa6VU-136" target="ghqXPNyZ9U7g0pVwa6VU-151" edge="1">
          <mxGeometry width="50" height="50" relative="1" as="geometry">
            <mxPoint x="830" y="2170" as="sourcePoint" />
            <mxPoint x="880" y="2120" as="targetPoint" />
          </mxGeometry>
        </mxCell>
        <mxCell id="ghqXPNyZ9U7g0pVwa6VU-154" style="edgeStyle=orthogonalEdgeStyle;rounded=0;orthogonalLoop=1;jettySize=auto;html=1;exitX=0.5;exitY=1;exitDx=0;exitDy=0;" parent="1" source="ghqXPNyZ9U7g0pVwa6VU-125" target="ghqXPNyZ9U7g0pVwa6VU-125" edge="1">
          <mxGeometry relative="1" as="geometry" />
        </mxCell>
        <mxCell id="Gio4Mi2FVh02s7rwVqTb-23" value="emp_status" style="ellipse;whiteSpace=wrap;html=1;align=center;" parent="1" vertex="1">
          <mxGeometry x="1410" y="845" width="81.66" height="35" as="geometry" />
        </mxCell>
        <mxCell id="Gio4Mi2FVh02s7rwVqTb-25" value="" style="endArrow=none;html=1;rounded=0;entryX=0.258;entryY=0.944;entryDx=0;entryDy=0;exitX=0.75;exitY=0;exitDx=0;exitDy=0;entryPerimeter=0;" parent="1" source="UdkjZhPED4S_4okrrKyf-175" target="SNjWAFohbMlmEdHlztWH-23" edge="1">
          <mxGeometry relative="1" as="geometry">
            <mxPoint x="1201.08" y="1146" as="sourcePoint" />
            <mxPoint x="1129.17" y="782.6000000000001" as="targetPoint" />
            <Array as="points" />
          </mxGeometry>
        </mxCell>
        <mxCell id="Gio4Mi2FVh02s7rwVqTb-26" value="" style="endArrow=none;html=1;rounded=0;exitX=0;exitY=0;exitDx=0;exitDy=0;" parent="1" source="Gio4Mi2FVh02s7rwVqTb-23" target="UdkjZhPED4S_4okrrKyf-175" edge="1">
          <mxGeometry relative="1" as="geometry">
            <mxPoint x="1323.08" y="1090" as="sourcePoint" />
            <mxPoint x="1226.08" y="1080" as="targetPoint" />
            <Array as="points" />
          </mxGeometry>
        </mxCell>
        <mxCell id="Gio4Mi2FVh02s7rwVqTb-35" value="schedule_status" style="ellipse;whiteSpace=wrap;html=1;align=center;" parent="1" vertex="1">
          <mxGeometry x="855" y="1930" width="130" height="40" as="geometry" />
        </mxCell>
        <mxCell id="Gio4Mi2FVh02s7rwVqTb-36" value="" style="endArrow=none;html=1;rounded=0;exitX=0.957;exitY=0.755;exitDx=0;exitDy=0;exitPerimeter=0;entryX=0;entryY=0;entryDx=0;entryDy=0;" parent="1" source="Gio4Mi2FVh02s7rwVqTb-35" target="UdkjZhPED4S_4okrrKyf-220" edge="1">
          <mxGeometry width="50" height="50" relative="1" as="geometry">
            <mxPoint x="1047" y="1990" as="sourcePoint" />
            <mxPoint x="1080" y="2020" as="targetPoint" />
          </mxGeometry>
        </mxCell>
        <mxCell id="pFeriK06zDPfB2XJO4WJ-20" value="plan_name" style="ellipse;whiteSpace=wrap;html=1;align=center;" parent="1" vertex="1">
          <mxGeometry x="467.38999999999993" y="530" width="95.46" height="40" as="geometry" />
        </mxCell>
        <mxCell id="pFeriK06zDPfB2XJO4WJ-21" value="" style="endArrow=none;html=1;rounded=0;entryX=0.75;entryY=0;entryDx=0;entryDy=0;" parent="1" source="pFeriK06zDPfB2XJO4WJ-20" target="UdkjZhPED4S_4okrrKyf-87" edge="1">
          <mxGeometry relative="1" as="geometry">
            <mxPoint x="180.41" y="1015" as="sourcePoint" />
            <mxPoint x="105.41" y="940" as="targetPoint" />
          </mxGeometry>
        </mxCell>
        <mxCell id="w-RnadfowD6wGREnBTG5-3" value="mobile" style="ellipse;shape=doubleEllipse;margin=3;whiteSpace=wrap;html=1;align=center;" parent="1" vertex="1">
          <mxGeometry x="553.9699999999999" y="70" width="100" height="40" as="geometry" />
        </mxCell>
        <mxCell id="w-RnadfowD6wGREnBTG5-8" value="name" style="ellipse;whiteSpace=wrap;html=1;align=center;" parent="1" vertex="1">
          <mxGeometry x="803.0000000000002" y="225" width="100" height="30" as="geometry" />
        </mxCell>
        <mxCell id="w-RnadfowD6wGREnBTG5-9" value="" style="endArrow=none;html=1;rounded=0;entryX=0;entryY=0.5;entryDx=0;entryDy=0;" parent="1" source="UdkjZhPED4S_4okrrKyf-79" target="w-RnadfowD6wGREnBTG5-8" edge="1">
          <mxGeometry width="50" height="50" relative="1" as="geometry">
            <mxPoint x="720" y="130" as="sourcePoint" />
            <mxPoint x="787" y="78" as="targetPoint" />
          </mxGeometry>
        </mxCell>
        <mxCell id="w-RnadfowD6wGREnBTG5-13" value="mat_type" style="ellipse;whiteSpace=wrap;html=1;align=center;" parent="1" vertex="1">
          <mxGeometry x="1006.4" y="940.0000000000001" width="87.54" height="40" as="geometry" />
        </mxCell>
        <mxCell id="w-RnadfowD6wGREnBTG5-14" value="" style="endArrow=none;html=1;rounded=0;entryX=0.5;entryY=1;entryDx=0;entryDy=0;" parent="1" source="w-RnadfowD6wGREnBTG5-13" target="UdkjZhPED4S_4okrrKyf-187" edge="1">
          <mxGeometry relative="1" as="geometry">
            <mxPoint x="522.4399999999999" y="951" as="sourcePoint" />
            <mxPoint x="567.4399999999999" y="1000" as="targetPoint" />
          </mxGeometry>
        </mxCell>
        <mxCell id="TxaWYDUw6tSnyGA78lyz-16" value="material_allocation&lt;br&gt;_quantity" style="ellipse;whiteSpace=wrap;html=1;align=center;" parent="1" vertex="1">
          <mxGeometry x="1035.17" y="660" width="130.91" height="40" as="geometry" />
        </mxCell>
        <mxCell id="TxaWYDUw6tSnyGA78lyz-17" value="" style="endArrow=none;html=1;rounded=0;exitX=0.347;exitY=1.06;exitDx=0;exitDy=0;entryX=1;entryY=0.5;entryDx=0;entryDy=0;exitPerimeter=0;" parent="1" source="TxaWYDUw6tSnyGA78lyz-16" target="UdkjZhPED4S_4okrrKyf-208" edge="1">
          <mxGeometry relative="1" as="geometry">
            <mxPoint x="712.53" y="770" as="sourcePoint" />
            <mxPoint x="656.53" y="800" as="targetPoint" />
          </mxGeometry>
        </mxCell>
        <mxCell id="TxaWYDUw6tSnyGA78lyz-32" value="" style="endArrow=none;html=1;rounded=0;entryX=0.5;entryY=1;entryDx=0;entryDy=0;exitX=1;exitY=0.25;exitDx=0;exitDy=0;shape=link;" parent="1" source="ghqXPNyZ9U7g0pVwa6VU-119" target="ghqXPNyZ9U7g0pVwa6VU-130" edge="1">
          <mxGeometry width="50" height="50" relative="1" as="geometry">
            <mxPoint x="970" y="2140" as="sourcePoint" />
            <mxPoint x="1020" y="2090" as="targetPoint" />
            <Array as="points">
              <mxPoint x="1110" y="2170" />
              <mxPoint x="1110" y="2140" />
            </Array>
          </mxGeometry>
        </mxCell>
        <mxCell id="TxaWYDUw6tSnyGA78lyz-35" value="coursework_grade" style="ellipse;whiteSpace=wrap;html=1;align=center;" parent="1" vertex="1">
          <mxGeometry x="777.0000000000001" y="2080" width="130" height="40" as="geometry" />
        </mxCell>
        <mxCell id="TxaWYDUw6tSnyGA78lyz-36" value="coursework_feedback" style="ellipse;whiteSpace=wrap;html=1;align=center;" parent="1" vertex="1">
          <mxGeometry x="547.0000000000001" y="2070" width="130" height="40" as="geometry" />
        </mxCell>
        <mxCell id="TxaWYDUw6tSnyGA78lyz-37" value="" style="endArrow=none;html=1;rounded=0;exitX=0.922;exitY=0.489;exitDx=0;exitDy=0;exitPerimeter=0;entryX=0.352;entryY=1.052;entryDx=0;entryDy=0;entryPerimeter=0;" parent="1" source="ghqXPNyZ9U7g0pVwa6VU-136" target="TxaWYDUw6tSnyGA78lyz-35" edge="1">
          <mxGeometry width="50" height="50" relative="1" as="geometry">
            <mxPoint x="1000" y="2040" as="sourcePoint" />
            <mxPoint x="1050" y="1990" as="targetPoint" />
          </mxGeometry>
        </mxCell>
        <mxCell id="TxaWYDUw6tSnyGA78lyz-38" value="" style="endArrow=none;html=1;rounded=0;exitX=0.731;exitY=0.969;exitDx=0;exitDy=0;exitPerimeter=0;entryX=0;entryY=0.5;entryDx=0;entryDy=0;" parent="1" source="TxaWYDUw6tSnyGA78lyz-36" target="ghqXPNyZ9U7g0pVwa6VU-136" edge="1">
          <mxGeometry width="50" height="50" relative="1" as="geometry">
            <mxPoint x="1000" y="2040" as="sourcePoint" />
            <mxPoint x="1050" y="1990" as="targetPoint" />
          </mxGeometry>
        </mxCell>
        <mxCell id="6oHFopruN9l4LaY-UtUE-3" value="mat_unit" style="ellipse;whiteSpace=wrap;html=1;align=center;" parent="1" vertex="1">
          <mxGeometry x="896.24" y="825" width="88.76" height="40" as="geometry" />
        </mxCell>
        <mxCell id="6oHFopruN9l4LaY-UtUE-4" value="" style="endArrow=none;html=1;rounded=0;exitX=0.25;exitY=0;exitDx=0;exitDy=0;entryX=0.715;entryY=1.103;entryDx=0;entryDy=0;entryPerimeter=0;" parent="1" source="UdkjZhPED4S_4okrrKyf-187" target="6oHFopruN9l4LaY-UtUE-3" edge="1">
          <mxGeometry relative="1" as="geometry">
            <mxPoint x="718.4399999999999" y="855" as="sourcePoint" />
            <mxPoint x="894.6538591072841" y="986.854581423474" as="targetPoint" />
          </mxGeometry>
        </mxCell>
        <mxCell id="SNjWAFohbMlmEdHlztWH-1" value="confirm_password" style="ellipse;whiteSpace=wrap;html=1;align=center;" parent="1" vertex="1">
          <mxGeometry x="888.9799999999999" y="110" width="109.83" height="40" as="geometry" />
        </mxCell>
        <mxCell id="SNjWAFohbMlmEdHlztWH-2" value="" style="endArrow=none;html=1;rounded=0;entryX=0;entryY=1;entryDx=0;entryDy=0;" parent="1" source="UdkjZhPED4S_4okrrKyf-79" target="SNjWAFohbMlmEdHlztWH-1" edge="1">
          <mxGeometry relative="1" as="geometry">
            <mxPoint x="813" y="158" as="sourcePoint" />
            <mxPoint x="908" y="59" as="targetPoint" />
            <Array as="points" />
          </mxGeometry>
        </mxCell>
        <mxCell id="SNjWAFohbMlmEdHlztWH-7" value="project_end_date" style="ellipse;whiteSpace=wrap;html=1;align=center;" parent="1" vertex="1">
          <mxGeometry x="847.9999999999999" y="600" width="116.42" height="40" as="geometry" />
        </mxCell>
        <mxCell id="SNjWAFohbMlmEdHlztWH-8" value="" style="endArrow=none;html=1;rounded=0;entryX=0.25;entryY=1;entryDx=0;entryDy=0;exitX=0.5;exitY=0;exitDx=0;exitDy=0;" parent="1" source="SNjWAFohbMlmEdHlztWH-7" target="UdkjZhPED4S_4okrrKyf-34" edge="1">
          <mxGeometry relative="1" as="geometry">
            <mxPoint x="1128.11" y="338" as="sourcePoint" />
            <mxPoint x="998.1099999999999" y="410" as="targetPoint" />
          </mxGeometry>
        </mxCell>
        <mxCell id="SNjWAFohbMlmEdHlztWH-13" value="owns" style="shape=rhombus;perimeter=rhombusPerimeter;whiteSpace=wrap;html=1;align=center;" parent="1" vertex="1">
          <mxGeometry x="940.5" y="310" width="80" height="60" as="geometry" />
        </mxCell>
        <mxCell id="SNjWAFohbMlmEdHlztWH-15" value="" style="endArrow=none;html=1;rounded=0;entryX=0.5;entryY=1;entryDx=0;entryDy=0;shape=link;" parent="1" source="UdkjZhPED4S_4okrrKyf-34" target="SNjWAFohbMlmEdHlztWH-13" edge="1">
          <mxGeometry relative="1" as="geometry">
            <mxPoint x="606.61" y="520" as="sourcePoint" />
            <mxPoint x="761.61" y="520" as="targetPoint" />
            <Array as="points" />
          </mxGeometry>
        </mxCell>
        <mxCell id="SNjWAFohbMlmEdHlztWH-17" value="&lt;font style=&quot;font-size: 17px;&quot;&gt;m&lt;/font&gt;" style="text;html=1;align=center;verticalAlign=middle;resizable=0;points=[];autosize=1;strokeColor=none;fillColor=none;fontStyle=1" parent="1" vertex="1">
          <mxGeometry x="973.46" y="440" width="40" height="30" as="geometry" />
        </mxCell>
        <mxCell id="SNjWAFohbMlmEdHlztWH-20" value="emp_lname" style="ellipse;whiteSpace=wrap;html=1;align=center;" parent="1" vertex="1">
          <mxGeometry x="1442" y="700" width="85" height="35" as="geometry" />
        </mxCell>
        <mxCell id="SNjWAFohbMlmEdHlztWH-21" value="" style="endArrow=none;html=1;rounded=0;" parent="1" source="SNjWAFohbMlmEdHlztWH-23" target="SNjWAFohbMlmEdHlztWH-20" edge="1">
          <mxGeometry relative="1" as="geometry">
            <mxPoint x="1688.91" y="920.1300000000001" as="sourcePoint" />
            <mxPoint x="1600.979217335995" y="898.5516131733775" as="targetPoint" />
          </mxGeometry>
        </mxCell>
        <mxCell id="SNjWAFohbMlmEdHlztWH-22" value="emp_fname" style="ellipse;whiteSpace=wrap;html=1;align=center;" parent="1" vertex="1">
          <mxGeometry x="1449.52" y="760" width="83" height="30" as="geometry" />
        </mxCell>
        <mxCell id="SNjWAFohbMlmEdHlztWH-23" value="emp_name" style="ellipse;whiteSpace=wrap;html=1;align=center;" parent="1" vertex="1">
          <mxGeometry x="1362" y="735" width="75" height="30" as="geometry" />
        </mxCell>
        <mxCell id="SNjWAFohbMlmEdHlztWH-25" value="" style="endArrow=none;html=1;rounded=0;exitX=1;exitY=1;exitDx=0;exitDy=0;" parent="1" source="SNjWAFohbMlmEdHlztWH-23" edge="1">
          <mxGeometry relative="1" as="geometry">
            <mxPoint x="1135.08" y="775" as="sourcePoint" />
            <mxPoint x="1450" y="775" as="targetPoint" />
          </mxGeometry>
        </mxCell>
        <mxCell id="SNjWAFohbMlmEdHlztWH-28" value="emp_availability" style="ellipse;whiteSpace=wrap;html=1;align=center;" parent="1" vertex="1">
          <mxGeometry x="1250" y="855" width="100.25" height="40" as="geometry" />
        </mxCell>
        <mxCell id="SNjWAFohbMlmEdHlztWH-29" value="" style="endArrow=none;html=1;rounded=0;exitX=0.5;exitY=0;exitDx=0;exitDy=0;entryX=0.25;entryY=1;entryDx=0;entryDy=0;" parent="1" source="SNjWAFohbMlmEdHlztWH-28" target="UdkjZhPED4S_4okrrKyf-175" edge="1">
          <mxGeometry relative="1" as="geometry">
            <mxPoint x="1121.08" y="906" as="sourcePoint" />
            <mxPoint x="1307.04" y="810" as="targetPoint" />
            <Array as="points" />
          </mxGeometry>
        </mxCell>
        <mxCell id="SNjWAFohbMlmEdHlztWH-31" value="emp_note" style="ellipse;whiteSpace=wrap;html=1;align=center;" parent="1" vertex="1">
          <mxGeometry x="1191.26" y="810" width="84.55" height="40" as="geometry" />
        </mxCell>
        <mxCell id="SNjWAFohbMlmEdHlztWH-33" value="" style="endArrow=none;html=1;rounded=0;exitX=1;exitY=0;exitDx=0;exitDy=0;entryX=0;entryY=0.75;entryDx=0;entryDy=0;" parent="1" source="SNjWAFohbMlmEdHlztWH-31" target="UdkjZhPED4S_4okrrKyf-175" edge="1">
          <mxGeometry relative="1" as="geometry">
            <mxPoint x="1272.0788767415106" y="817.815393095025" as="sourcePoint" />
            <mxPoint x="980.0799999999999" y="880" as="targetPoint" />
            <Array as="points" />
          </mxGeometry>
        </mxCell>
        <mxCell id="SNjWAFohbMlmEdHlztWH-39" value="client_name" style="ellipse;whiteSpace=wrap;html=1;align=center;" parent="1" vertex="1">
          <mxGeometry x="1101.37" y="440" width="116.42" height="40" as="geometry" />
        </mxCell>
        <mxCell id="SNjWAFohbMlmEdHlztWH-40" value="" style="endArrow=none;html=1;rounded=0;exitX=0;exitY=1;exitDx=0;exitDy=0;" parent="1" source="SNjWAFohbMlmEdHlztWH-39" edge="1">
          <mxGeometry relative="1" as="geometry">
            <mxPoint x="1124.53" y="409" as="sourcePoint" />
            <mxPoint x="1028.29" y="500" as="targetPoint" />
          </mxGeometry>
        </mxCell>
        <mxCell id="SNjWAFohbMlmEdHlztWH-48" value="&lt;b style=&quot;&quot;&gt;&lt;font style=&quot;font-size: 19px;&quot;&gt;1&lt;/font&gt;&lt;/b&gt;" style="text;html=1;align=center;verticalAlign=middle;resizable=0;points=[];autosize=1;strokeColor=none;fillColor=none;fontSize=17;" parent="1" vertex="1">
          <mxGeometry x="963.1700000000001" y="685" width="30" height="40" as="geometry" />
        </mxCell>
        <mxCell id="SNjWAFohbMlmEdHlztWH-49" value="mat_name" style="ellipse;whiteSpace=wrap;html=1;align=center;" parent="1" vertex="1">
          <mxGeometry x="1075.0800000000002" y="890" width="90.17" height="40" as="geometry" />
        </mxCell>
        <mxCell id="SNjWAFohbMlmEdHlztWH-50" value="mat_quantity" style="ellipse;whiteSpace=wrap;html=1;align=center;" parent="1" vertex="1">
          <mxGeometry x="823.1600000000001" y="915" width="89.83" height="40" as="geometry" />
        </mxCell>
        <mxCell id="SNjWAFohbMlmEdHlztWH-51" value="" style="endArrow=none;html=1;rounded=0;exitX=0;exitY=0.5;exitDx=0;exitDy=0;entryX=1;entryY=0.5;entryDx=0;entryDy=0;" parent="1" source="UdkjZhPED4S_4okrrKyf-187" target="SNjWAFohbMlmEdHlztWH-50" edge="1">
          <mxGeometry relative="1" as="geometry">
            <mxPoint x="1026.15" y="975" as="sourcePoint" />
            <mxPoint x="989.15" y="989" as="targetPoint" />
          </mxGeometry>
        </mxCell>
        <mxCell id="SNjWAFohbMlmEdHlztWH-52" value="" style="endArrow=none;html=1;rounded=0;exitX=0;exitY=0.5;exitDx=0;exitDy=0;" parent="1" source="SNjWAFohbMlmEdHlztWH-49" edge="1">
          <mxGeometry relative="1" as="geometry">
            <mxPoint x="1073.44" y="953" as="sourcePoint" />
            <mxPoint x="1045.44" y="905" as="targetPoint" />
          </mxGeometry>
        </mxCell>
        <mxCell id="vQQ2ORAMrimU4EYnoV-2-13" value="has" style="shape=rhombus;perimeter=rhombusPerimeter;whiteSpace=wrap;html=1;align=center;" parent="1" vertex="1">
          <mxGeometry x="598.0000000000001" y="560" width="120" height="60" as="geometry" />
        </mxCell>
        <mxCell id="vQQ2ORAMrimU4EYnoV-2-14" value="emp_allocation&lt;br&gt;_strat_date" style="ellipse;whiteSpace=wrap;html=1;align=center;" parent="1" vertex="1">
          <mxGeometry x="1402.33" y="570" width="113" height="40" as="geometry" />
        </mxCell>
        <mxCell id="vQQ2ORAMrimU4EYnoV-2-15" value="emp_allocation&lt;br&gt;_end_date" style="ellipse;whiteSpace=wrap;html=1;align=center;" parent="1" vertex="1">
          <mxGeometry x="1406.1" y="640" width="105.46" height="40" as="geometry" />
        </mxCell>
        <mxCell id="vQQ2ORAMrimU4EYnoV-2-16" value="" style="endArrow=none;html=1;rounded=0;entryX=1;entryY=0.5;entryDx=0;entryDy=0;exitX=0;exitY=1;exitDx=0;exitDy=0;" parent="1" source="vQQ2ORAMrimU4EYnoV-2-14" target="UdkjZhPED4S_4okrrKyf-172" edge="1">
          <mxGeometry relative="1" as="geometry">
            <mxPoint x="1427.33" y="594" as="sourcePoint" />
            <mxPoint x="1379.33" y="768" as="targetPoint" />
            <Array as="points" />
          </mxGeometry>
        </mxCell>
        <mxCell id="vQQ2ORAMrimU4EYnoV-2-17" value="" style="endArrow=none;html=1;rounded=0;entryX=1;entryY=0.5;entryDx=0;entryDy=0;exitX=0.061;exitY=0.319;exitDx=0;exitDy=0;exitPerimeter=0;" parent="1" source="vQQ2ORAMrimU4EYnoV-2-15" target="UdkjZhPED4S_4okrrKyf-172" edge="1">
          <mxGeometry relative="1" as="geometry">
            <mxPoint x="1434.33" y="671" as="sourcePoint" />
            <mxPoint x="1408.33" y="650" as="targetPoint" />
            <Array as="points" />
          </mxGeometry>
        </mxCell>
        <mxCell id="vQQ2ORAMrimU4EYnoV-2-18" value="" style="endArrow=none;html=1;rounded=0;entryX=0.5;entryY=0;entryDx=0;entryDy=0;exitX=0;exitY=0.75;exitDx=0;exitDy=0;shape=link;" parent="1" source="UdkjZhPED4S_4okrrKyf-34" target="vQQ2ORAMrimU4EYnoV-2-13" edge="1">
          <mxGeometry relative="1" as="geometry">
            <mxPoint x="997.29" y="540" as="sourcePoint" />
            <mxPoint x="998.29" y="650" as="targetPoint" />
            <Array as="points">
              <mxPoint x="658" y="520" />
            </Array>
          </mxGeometry>
        </mxCell>
        <mxCell id="vQQ2ORAMrimU4EYnoV-2-19" value="" style="endArrow=none;html=1;rounded=0;entryX=1;entryY=0.5;entryDx=0;entryDy=0;shape=link;exitX=0.5;exitY=1;exitDx=0;exitDy=0;" parent="1" source="vQQ2ORAMrimU4EYnoV-2-13" target="UdkjZhPED4S_4okrrKyf-87" edge="1">
          <mxGeometry relative="1" as="geometry">
            <mxPoint x="604.14" y="600" as="sourcePoint" />
            <mxPoint x="420.14000000000004" y="640" as="targetPoint" />
          </mxGeometry>
        </mxCell>
        <mxCell id="vQQ2ORAMrimU4EYnoV-2-20" value="&lt;b style=&quot;&quot;&gt;&lt;font style=&quot;font-size: 19px;&quot;&gt;1&lt;/font&gt;&lt;/b&gt;" style="text;html=1;align=center;verticalAlign=middle;resizable=0;points=[];autosize=1;strokeColor=none;fillColor=none;fontSize=17;" parent="1" vertex="1">
          <mxGeometry x="663.1200000000001" y="540" width="30" height="40" as="geometry" />
        </mxCell>
        <mxCell id="vQQ2ORAMrimU4EYnoV-2-22" value="&lt;b style=&quot;&quot;&gt;&lt;font style=&quot;font-size: 19px;&quot;&gt;n&lt;/font&gt;&lt;/b&gt;" style="text;html=1;align=center;verticalAlign=middle;resizable=0;points=[];autosize=1;strokeColor=none;fillColor=none;fontSize=17;" parent="1" vertex="1">
          <mxGeometry x="632.1700000000002" y="800" width="40" height="40" as="geometry" />
        </mxCell>
        <mxCell id="vQQ2ORAMrimU4EYnoV-2-24" value="" style="endArrow=none;html=1;rounded=0;exitX=0.75;exitY=1;exitDx=0;exitDy=0;shape=link;" parent="1" source="UdkjZhPED4S_4okrrKyf-87" target="vQQ2ORAMrimU4EYnoV-2-25" edge="1">
          <mxGeometry relative="1" as="geometry">
            <mxPoint x="428.14000000000004" y="620" as="sourcePoint" />
            <mxPoint x="428.14000000000004" y="690" as="targetPoint" />
            <Array as="points" />
          </mxGeometry>
        </mxCell>
        <mxCell id="vQQ2ORAMrimU4EYnoV-2-25" value="has" style="shape=rhombus;perimeter=rhombusPerimeter;whiteSpace=wrap;html=1;align=center;" parent="1" vertex="1">
          <mxGeometry x="378.25000000000017" y="710" width="120" height="60" as="geometry" />
        </mxCell>
        <mxCell id="vQQ2ORAMrimU4EYnoV-2-26" value="MainTask" style="whiteSpace=wrap;html=1;align=center;" parent="1" vertex="1">
          <mxGeometry x="377.53999999999996" y="885" width="100" height="40" as="geometry" />
        </mxCell>
        <mxCell id="vQQ2ORAMrimU4EYnoV-2-27" value="" style="endArrow=none;html=1;rounded=0;exitX=0.5;exitY=1;exitDx=0;exitDy=0;entryX=0.61;entryY=0.07;entryDx=0;entryDy=0;entryPerimeter=0;" parent="1" source="vQQ2ORAMrimU4EYnoV-2-25" target="vQQ2ORAMrimU4EYnoV-2-26" edge="1">
          <mxGeometry relative="1" as="geometry">
            <mxPoint x="422.51000000000005" y="810" as="sourcePoint" />
            <mxPoint x="422.51000000000005" y="880" as="targetPoint" />
            <Array as="points" />
          </mxGeometry>
        </mxCell>
        <mxCell id="vQQ2ORAMrimU4EYnoV-2-28" value="task_id" style="ellipse;whiteSpace=wrap;html=1;align=center;fontStyle=4;" parent="1" vertex="1">
          <mxGeometry x="488.5" y="920" width="87" height="40" as="geometry" />
        </mxCell>
        <mxCell id="vQQ2ORAMrimU4EYnoV-2-29" value="" style="endArrow=none;html=1;rounded=0;exitX=1;exitY=0.75;exitDx=0;exitDy=0;" parent="1" source="vQQ2ORAMrimU4EYnoV-2-26" target="vQQ2ORAMrimU4EYnoV-2-28" edge="1">
          <mxGeometry relative="1" as="geometry">
            <mxPoint x="389.54" y="850" as="sourcePoint" />
            <mxPoint x="385.81" y="960" as="targetPoint" />
          </mxGeometry>
        </mxCell>
        <mxCell id="vQQ2ORAMrimU4EYnoV-2-30" value="task_description" style="ellipse;whiteSpace=wrap;html=1;align=center;" parent="1" vertex="1">
          <mxGeometry x="225.57" y="920" width="108.47" height="35" as="geometry" />
        </mxCell>
        <mxCell id="vQQ2ORAMrimU4EYnoV-2-31" value="" style="endArrow=none;html=1;rounded=0;exitX=1;exitY=0.5;exitDx=0;exitDy=0;entryX=0;entryY=0.75;entryDx=0;entryDy=0;" parent="1" source="vQQ2ORAMrimU4EYnoV-2-30" target="vQQ2ORAMrimU4EYnoV-2-26" edge="1">
          <mxGeometry relative="1" as="geometry">
            <mxPoint x="-184.19" y="1070" as="sourcePoint" />
            <mxPoint x="439.54" y="890" as="targetPoint" />
          </mxGeometry>
        </mxCell>
        <mxCell id="vQQ2ORAMrimU4EYnoV-2-32" value="task_name" style="ellipse;whiteSpace=wrap;html=1;align=center;" parent="1" vertex="1">
          <mxGeometry x="458.5099999999999" y="825" width="95.46" height="40" as="geometry" />
        </mxCell>
        <mxCell id="vQQ2ORAMrimU4EYnoV-2-33" value="" style="endArrow=none;html=1;rounded=0;entryX=0.815;entryY=0.002;entryDx=0;entryDy=0;entryPerimeter=0;" parent="1" source="vQQ2ORAMrimU4EYnoV-2-32" target="vQQ2ORAMrimU4EYnoV-2-26" edge="1">
          <mxGeometry relative="1" as="geometry">
            <mxPoint x="155.80999999999997" y="1285" as="sourcePoint" />
            <mxPoint x="464.53999999999996" y="850" as="targetPoint" />
          </mxGeometry>
        </mxCell>
        <mxCell id="vQQ2ORAMrimU4EYnoV-2-34" value="" style="endArrow=none;html=1;rounded=0;entryX=0.5;entryY=0;entryDx=0;entryDy=0;exitX=1;exitY=1;exitDx=0;exitDy=0;" parent="1" source="UdkjZhPED4S_4okrrKyf-87" target="vQQ2ORAMrimU4EYnoV-2-35" edge="1">
          <mxGeometry relative="1" as="geometry">
            <mxPoint x="470" y="630" as="sourcePoint" />
            <mxPoint x="636.67" y="850" as="targetPoint" />
            <Array as="points">
              <mxPoint x="637" y="640" />
            </Array>
          </mxGeometry>
        </mxCell>
        <mxCell id="vQQ2ORAMrimU4EYnoV-2-35" value="has" style="shape=rhombus;perimeter=rhombusPerimeter;whiteSpace=wrap;html=1;align=center;" parent="1" vertex="1">
          <mxGeometry x="577.0000000000001" y="835" width="120" height="60" as="geometry" />
        </mxCell>
        <mxCell id="vQQ2ORAMrimU4EYnoV-2-36" value="SubTask" style="whiteSpace=wrap;html=1;align=center;" parent="1" vertex="1">
          <mxGeometry x="586.9999999999999" y="997.13" width="100" height="40" as="geometry" />
        </mxCell>
        <mxCell id="vQQ2ORAMrimU4EYnoV-2-37" value="" style="endArrow=none;html=1;rounded=0;exitX=0.5;exitY=1;exitDx=0;exitDy=0;entryX=0.5;entryY=0;entryDx=0;entryDy=0;shape=link;" parent="1" source="vQQ2ORAMrimU4EYnoV-2-35" target="vQQ2ORAMrimU4EYnoV-2-36" edge="1">
          <mxGeometry relative="1" as="geometry">
            <mxPoint x="635.91" y="910" as="sourcePoint" />
            <mxPoint x="635.91" y="980" as="targetPoint" />
            <Array as="points" />
          </mxGeometry>
        </mxCell>
        <mxCell id="vQQ2ORAMrimU4EYnoV-2-38" value="subtask_id" style="ellipse;whiteSpace=wrap;html=1;align=center;fontStyle=4;" parent="1" vertex="1">
          <mxGeometry x="521" y="1055" width="77" height="40" as="geometry" />
        </mxCell>
        <mxCell id="vQQ2ORAMrimU4EYnoV-2-39" value="" style="endArrow=none;html=1;rounded=0;exitX=0;exitY=1;exitDx=0;exitDy=0;" parent="1" source="vQQ2ORAMrimU4EYnoV-2-36" target="vQQ2ORAMrimU4EYnoV-2-38" edge="1">
          <mxGeometry relative="1" as="geometry">
            <mxPoint x="602.9399999999999" y="950" as="sourcePoint" />
            <mxPoint x="599.2099999999999" y="1060" as="targetPoint" />
          </mxGeometry>
        </mxCell>
        <mxCell id="vQQ2ORAMrimU4EYnoV-2-40" value="sub_description" style="ellipse;whiteSpace=wrap;html=1;align=center;" parent="1" vertex="1">
          <mxGeometry x="662.9399999999998" y="1070" width="140" height="40" as="geometry" />
        </mxCell>
        <mxCell id="vQQ2ORAMrimU4EYnoV-2-41" value="" style="endArrow=none;html=1;rounded=0;exitX=0.291;exitY=0.006;exitDx=0;exitDy=0;entryX=0.803;entryY=1.042;entryDx=0;entryDy=0;exitPerimeter=0;entryPerimeter=0;" parent="1" source="vQQ2ORAMrimU4EYnoV-2-40" target="vQQ2ORAMrimU4EYnoV-2-36" edge="1">
          <mxGeometry relative="1" as="geometry">
            <mxPoint x="29.210000000000008" y="1170" as="sourcePoint" />
            <mxPoint x="652.9399999999999" y="990" as="targetPoint" />
          </mxGeometry>
        </mxCell>
        <mxCell id="vQQ2ORAMrimU4EYnoV-2-42" value="subtask_name" style="ellipse;whiteSpace=wrap;html=1;align=center;" parent="1" vertex="1">
          <mxGeometry x="667.1699999999998" y="930" width="95.46" height="40" as="geometry" />
        </mxCell>
        <mxCell id="vQQ2ORAMrimU4EYnoV-2-43" value="" style="endArrow=none;html=1;rounded=0;entryX=0.815;entryY=0.002;entryDx=0;entryDy=0;entryPerimeter=0;" parent="1" source="vQQ2ORAMrimU4EYnoV-2-42" target="vQQ2ORAMrimU4EYnoV-2-36" edge="1">
          <mxGeometry relative="1" as="geometry">
            <mxPoint x="369.21" y="1385" as="sourcePoint" />
            <mxPoint x="677.9399999999999" y="950" as="targetPoint" />
          </mxGeometry>
        </mxCell>
        <mxCell id="vQQ2ORAMrimU4EYnoV-2-44" value="&lt;b style=&quot;&quot;&gt;&lt;font style=&quot;font-size: 19px;&quot;&gt;1&lt;/font&gt;&lt;/b&gt;" style="text;html=1;align=center;verticalAlign=middle;resizable=0;points=[];autosize=1;strokeColor=none;fillColor=none;fontSize=17;" parent="1" vertex="1">
          <mxGeometry x="406.19000000000017" y="670" width="30" height="40" as="geometry" />
        </mxCell>
        <mxCell id="vQQ2ORAMrimU4EYnoV-2-45" value="&lt;span style=&quot;font-size: 19px;&quot;&gt;&lt;b&gt;m&lt;/b&gt;&lt;/span&gt;" style="text;html=1;align=center;verticalAlign=middle;resizable=0;points=[];autosize=1;strokeColor=none;fillColor=none;fontSize=17;" parent="1" vertex="1">
          <mxGeometry x="394.3700000000002" y="760" width="40" height="40" as="geometry" />
        </mxCell>
        <mxCell id="vQQ2ORAMrimU4EYnoV-2-47" value="&lt;b style=&quot;&quot;&gt;&lt;font style=&quot;font-size: 19px;&quot;&gt;m&lt;/font&gt;&lt;/b&gt;" style="text;html=1;align=center;verticalAlign=middle;resizable=0;points=[];autosize=1;strokeColor=none;fillColor=none;fontSize=17;" parent="1" vertex="1">
          <mxGeometry x="640.0000000000001" y="890" width="40" height="40" as="geometry" />
        </mxCell>
        <mxCell id="vQQ2ORAMrimU4EYnoV-2-49" value="" style="endArrow=none;html=1;rounded=0;exitX=1;exitY=0.5;exitDx=0;exitDy=0;entryX=0.087;entryY=0.5;entryDx=0;entryDy=0;entryPerimeter=0;" parent="1" source="vQQ2ORAMrimU4EYnoV-2-25" target="vQQ2ORAMrimU4EYnoV-2-50" edge="1">
          <mxGeometry relative="1" as="geometry">
            <mxPoint x="333.5400000000001" y="787.5" as="sourcePoint" />
            <mxPoint x="324.15222969352504" y="765.7999722196118" as="targetPoint" />
          </mxGeometry>
        </mxCell>
        <mxCell id="vQQ2ORAMrimU4EYnoV-2-50" value="task_status" style="ellipse;whiteSpace=wrap;html=1;align=center;" parent="1" vertex="1">
          <mxGeometry x="521" y="700" width="95.46" height="40" as="geometry" />
        </mxCell>
        <mxCell id="vQQ2ORAMrimU4EYnoV-2-51" value="has" style="shape=rhombus;perimeter=rhombusPerimeter;whiteSpace=wrap;html=1;align=center;" parent="1" vertex="1">
          <mxGeometry x="1500" y="490" width="100" height="60" as="geometry" />
        </mxCell>
        <mxCell id="vQQ2ORAMrimU4EYnoV-2-52" value="" style="endArrow=none;html=1;rounded=0;exitX=1;exitY=0.5;exitDx=0;exitDy=0;entryX=0;entryY=0.5;entryDx=0;entryDy=0;" parent="1" source="UdkjZhPED4S_4okrrKyf-79" target="8up9FTdWz8j51L4QSD5t-48" edge="1">
          <mxGeometry relative="1" as="geometry">
            <mxPoint x="1455" y="290" as="sourcePoint" />
            <mxPoint x="1480" y="170" as="targetPoint" />
            <Array as="points" />
          </mxGeometry>
        </mxCell>
        <mxCell id="vQQ2ORAMrimU4EYnoV-2-55" value="" style="endArrow=none;html=1;rounded=0;entryX=0.391;entryY=-0.012;entryDx=0;entryDy=0;exitX=0.5;exitY=1;exitDx=0;exitDy=0;entryPerimeter=0;" parent="1" source="vQQ2ORAMrimU4EYnoV-2-51" target="jYqa2oQGQ4DXmoSrvg_Q-25" edge="1">
          <mxGeometry relative="1" as="geometry">
            <mxPoint x="997.29" y="540" as="sourcePoint" />
            <mxPoint x="998.29" y="650" as="targetPoint" />
            <Array as="points" />
          </mxGeometry>
        </mxCell>
        <mxCell id="vQQ2ORAMrimU4EYnoV-2-56" value="&lt;font style=&quot;font-size: 17px;&quot;&gt;1&lt;/font&gt;" style="text;html=1;align=center;verticalAlign=middle;resizable=0;points=[];autosize=1;strokeColor=none;fillColor=none;fontStyle=1" parent="1" vertex="1">
          <mxGeometry x="1538" y="140" width="30" height="30" as="geometry" />
        </mxCell>
        <mxCell id="vQQ2ORAMrimU4EYnoV-2-57" value="&lt;font style=&quot;font-size: 17px;&quot;&gt;m&lt;/font&gt;" style="text;html=1;align=center;verticalAlign=middle;resizable=0;points=[];autosize=1;strokeColor=none;fillColor=none;fontStyle=1" parent="1" vertex="1">
          <mxGeometry x="1545" y="560" width="40" height="30" as="geometry" />
        </mxCell>
        <mxCell id="jYqa2oQGQ4DXmoSrvg_Q-1" value="" style="resizable=0;html=1;whiteSpace=wrap;align=right;verticalAlign=bottom;" parent="1" connectable="0" vertex="1">
          <mxGeometry x="743.4116371864166" y="1570.4390477131315" as="geometry" />
        </mxCell>
        <mxCell id="jYqa2oQGQ4DXmoSrvg_Q-2" value="" style="endArrow=classic;html=1;rounded=0;entryX=0.38;entryY=-0.017;entryDx=0;entryDy=0;exitX=0;exitY=1;exitDx=0;exitDy=0;entryPerimeter=0;" parent="1" source="jYqa2oQGQ4DXmoSrvg_Q-7" target="jYqa2oQGQ4DXmoSrvg_Q-8" edge="1">
          <mxGeometry width="50" height="50" relative="1" as="geometry">
            <mxPoint x="633.25" y="1555" as="sourcePoint" />
            <mxPoint x="640.25" y="1745" as="targetPoint" />
            <Array as="points">
              <mxPoint x="413.25" y="1608" />
            </Array>
          </mxGeometry>
        </mxCell>
        <mxCell id="jYqa2oQGQ4DXmoSrvg_Q-3" value="GeneralManager" style="whiteSpace=wrap;html=1;align=center;" parent="1" vertex="1">
          <mxGeometry x="85.34" y="1655" width="100" height="40" as="geometry" />
        </mxCell>
        <mxCell id="jYqa2oQGQ4DXmoSrvg_Q-4" value="OtherUser" style="whiteSpace=wrap;html=1;align=center;" parent="1" vertex="1">
          <mxGeometry x="1388.25" y="1655" width="100" height="40" as="geometry" />
        </mxCell>
        <mxCell id="jYqa2oQGQ4DXmoSrvg_Q-5" value="" style="endArrow=classic;html=1;rounded=0;entryX=0.5;entryY=0;entryDx=0;entryDy=0;" parent="1" source="jYqa2oQGQ4DXmoSrvg_Q-7" target="jYqa2oQGQ4DXmoSrvg_Q-4" edge="1">
          <mxGeometry width="50" height="50" relative="1" as="geometry">
            <mxPoint x="623.25" y="1590" as="sourcePoint" />
            <mxPoint x="1283.42" y="1750" as="targetPoint" />
            <Array as="points">
              <mxPoint x="1438.25" y="1593" />
            </Array>
          </mxGeometry>
        </mxCell>
        <mxCell id="jYqa2oQGQ4DXmoSrvg_Q-6" value="" style="endArrow=none;html=1;rounded=0;endFill=0;exitX=0.5;exitY=0;exitDx=0;exitDy=0;entryX=0;entryY=0.5;entryDx=0;entryDy=0;startArrow=classic;startFill=1;" parent="1" source="jYqa2oQGQ4DXmoSrvg_Q-3" target="jYqa2oQGQ4DXmoSrvg_Q-7" edge="1">
          <mxGeometry width="50" height="50" relative="1" as="geometry">
            <mxPoint x="153.25" y="1595" as="sourcePoint" />
            <mxPoint x="1473.25" y="1743" as="targetPoint" />
            <Array as="points">
              <mxPoint x="133.25" y="1593" />
              <mxPoint x="293.25" y="1595" />
            </Array>
          </mxGeometry>
        </mxCell>
        <mxCell id="jYqa2oQGQ4DXmoSrvg_Q-7" value="d" style="ellipse;whiteSpace=wrap;html=1;align=center;" parent="1" vertex="1">
          <mxGeometry x="718.42" y="1570" width="50" height="45" as="geometry" />
        </mxCell>
        <mxCell id="jYqa2oQGQ4DXmoSrvg_Q-8" value="SeniorProjectManager" style="whiteSpace=wrap;html=1;align=center;" parent="1" vertex="1">
          <mxGeometry x="343.25" y="1655" width="190" height="40" as="geometry" />
        </mxCell>
        <mxCell id="jYqa2oQGQ4DXmoSrvg_Q-9" value="Client" style="whiteSpace=wrap;html=1;align=center;" parent="1" vertex="1">
          <mxGeometry x="1032.92" y="1655" width="100" height="40" as="geometry" />
        </mxCell>
        <mxCell id="jYqa2oQGQ4DXmoSrvg_Q-10" value="" style="endArrow=classic;html=1;rounded=0;entryX=0.5;entryY=0;entryDx=0;entryDy=0;exitX=1;exitY=1;exitDx=0;exitDy=0;" parent="1" source="jYqa2oQGQ4DXmoSrvg_Q-7" target="jYqa2oQGQ4DXmoSrvg_Q-9" edge="1">
          <mxGeometry width="50" height="50" relative="1" as="geometry">
            <mxPoint x="1014.25" y="1635" as="sourcePoint" />
            <mxPoint x="733.25" y="1674" as="targetPoint" />
            <Array as="points">
              <mxPoint x="1083.25" y="1608" />
            </Array>
          </mxGeometry>
        </mxCell>
        <mxCell id="jYqa2oQGQ4DXmoSrvg_Q-11" value="&lt;font style=&quot;font-size: 17px;&quot;&gt;1&lt;/font&gt;" style="text;html=1;align=center;verticalAlign=middle;resizable=0;points=[];autosize=1;strokeColor=none;fillColor=none;fontStyle=1" parent="1" vertex="1">
          <mxGeometry x="853.0799999999999" y="340" width="30" height="30" as="geometry" />
        </mxCell>
        <mxCell id="jYqa2oQGQ4DXmoSrvg_Q-12" value="ResourceManager" style="whiteSpace=wrap;html=1;align=center;" parent="1" vertex="1">
          <mxGeometry x="688.25" y="1655" width="140" height="40" as="geometry" />
        </mxCell>
        <mxCell id="jYqa2oQGQ4DXmoSrvg_Q-13" value="" style="endArrow=none;html=1;rounded=0;entryX=0.384;entryY=-0.033;entryDx=0;entryDy=0;exitX=0.5;exitY=1;exitDx=0;exitDy=0;entryPerimeter=0;" parent="1" source="jYqa2oQGQ4DXmoSrvg_Q-7" target="jYqa2oQGQ4DXmoSrvg_Q-12" edge="1">
          <mxGeometry relative="1" as="geometry">
            <mxPoint x="952.25" y="1903" as="sourcePoint" />
            <mxPoint x="1043.25" y="1935" as="targetPoint" />
            <Array as="points" />
          </mxGeometry>
        </mxCell>
        <mxCell id="jYqa2oQGQ4DXmoSrvg_Q-14" value="company" style="ellipse;whiteSpace=wrap;html=1;align=center;" parent="1" vertex="1">
          <mxGeometry x="1174.49" y="1615" width="118" height="40" as="geometry" />
        </mxCell>
        <mxCell id="jYqa2oQGQ4DXmoSrvg_Q-15" value="" style="endArrow=none;html=1;rounded=0;exitX=1;exitY=0.25;exitDx=0;exitDy=0;entryX=0.05;entryY=0.717;entryDx=0;entryDy=0;entryPerimeter=0;" parent="1" source="jYqa2oQGQ4DXmoSrvg_Q-9" target="jYqa2oQGQ4DXmoSrvg_Q-14" edge="1">
          <mxGeometry width="50" height="50" relative="1" as="geometry">
            <mxPoint x="771.25" y="1495" as="sourcePoint" />
            <mxPoint x="821.25" y="1527" as="targetPoint" />
          </mxGeometry>
        </mxCell>
        <mxCell id="jYqa2oQGQ4DXmoSrvg_Q-18" value="company" style="ellipse;whiteSpace=wrap;html=1;align=center;" parent="1" vertex="1">
          <mxGeometry x="593.1200000000001" y="245" width="100" height="40" as="geometry" />
        </mxCell>
        <mxCell id="jYqa2oQGQ4DXmoSrvg_Q-19" value="" style="endArrow=none;html=1;rounded=0;exitX=0.15;exitY=0.959;exitDx=0;exitDy=0;exitPerimeter=0;" parent="1" source="UdkjZhPED4S_4okrrKyf-79" target="jYqa2oQGQ4DXmoSrvg_Q-18" edge="1">
          <mxGeometry width="50" height="50" relative="1" as="geometry">
            <mxPoint x="750" y="200" as="sourcePoint" />
            <mxPoint x="707" y="270" as="targetPoint" />
          </mxGeometry>
        </mxCell>
        <mxCell id="jYqa2oQGQ4DXmoSrvg_Q-23" value="emp_level" style="ellipse;whiteSpace=wrap;html=1;align=center;" parent="1" vertex="1">
          <mxGeometry x="1337.17" y="885" width="92.83" height="35" as="geometry" />
        </mxCell>
        <mxCell id="jYqa2oQGQ4DXmoSrvg_Q-24" value="" style="endArrow=none;html=1;rounded=0;exitX=0.5;exitY=0;exitDx=0;exitDy=0;entryX=0.5;entryY=1;entryDx=0;entryDy=0;" parent="1" source="jYqa2oQGQ4DXmoSrvg_Q-23" target="UdkjZhPED4S_4okrrKyf-175" edge="1">
          <mxGeometry relative="1" as="geometry">
            <mxPoint x="1433.04" y="901" as="sourcePoint" />
            <mxPoint x="1366.04" y="825" as="targetPoint" />
            <Array as="points" />
          </mxGeometry>
        </mxCell>
        <mxCell id="jYqa2oQGQ4DXmoSrvg_Q-25" value="EmpoyeeRequest" style="whiteSpace=wrap;html=1;align=center;" parent="1" vertex="1">
          <mxGeometry x="1500" y="1000" width="130" height="40" as="geometry" />
        </mxCell>
        <mxCell id="jYqa2oQGQ4DXmoSrvg_Q-27" value="" style="endArrow=none;html=1;rounded=0;entryX=1;entryY=0.75;entryDx=0;entryDy=0;exitX=0;exitY=0.5;exitDx=0;exitDy=0;" parent="1" source="vQQ2ORAMrimU4EYnoV-2-51" target="UdkjZhPED4S_4okrrKyf-34" edge="1">
          <mxGeometry relative="1" as="geometry">
            <mxPoint x="998" y="540" as="sourcePoint" />
            <mxPoint x="998" y="650" as="targetPoint" />
            <Array as="points" />
          </mxGeometry>
        </mxCell>
        <mxCell id="jYqa2oQGQ4DXmoSrvg_Q-29" value="&lt;font style=&quot;font-size: 17px;&quot;&gt;1&lt;/font&gt;" style="text;html=1;align=center;verticalAlign=middle;resizable=0;points=[];autosize=1;strokeColor=none;fillColor=none;fontStyle=1" parent="1" vertex="1">
          <mxGeometry x="1461.66" y="485" width="30" height="30" as="geometry" />
        </mxCell>
        <mxCell id="jYqa2oQGQ4DXmoSrvg_Q-30" value="employee_role" style="ellipse;whiteSpace=wrap;html=1;align=center;" parent="1" vertex="1">
          <mxGeometry x="1395.09" y="950.0000000000001" width="104.91" height="40" as="geometry" />
        </mxCell>
        <mxCell id="jYqa2oQGQ4DXmoSrvg_Q-31" value="&lt;u&gt;emp_request_id&lt;/u&gt;" style="ellipse;whiteSpace=wrap;html=1;align=center;" parent="1" vertex="1">
          <mxGeometry x="1380" y="1020" width="94.25" height="40" as="geometry" />
        </mxCell>
        <mxCell id="jYqa2oQGQ4DXmoSrvg_Q-32" value="emp_count" style="ellipse;whiteSpace=wrap;html=1;align=center;" parent="1" vertex="1">
          <mxGeometry x="1515.33" y="1070" width="96" height="40" as="geometry" />
        </mxCell>
        <mxCell id="jYqa2oQGQ4DXmoSrvg_Q-33" value="" style="endArrow=none;html=1;rounded=0;" parent="1" source="jYqa2oQGQ4DXmoSrvg_Q-25" target="jYqa2oQGQ4DXmoSrvg_Q-30" edge="1">
          <mxGeometry relative="1" as="geometry">
            <mxPoint x="1255.04" y="920" as="sourcePoint" />
            <mxPoint x="1257.04" y="860" as="targetPoint" />
            <Array as="points" />
          </mxGeometry>
        </mxCell>
        <mxCell id="jYqa2oQGQ4DXmoSrvg_Q-35" value="" style="endArrow=none;html=1;rounded=0;entryX=0.325;entryY=0.997;entryDx=0;entryDy=0;exitX=0.5;exitY=0;exitDx=0;exitDy=0;entryPerimeter=0;" parent="1" source="jYqa2oQGQ4DXmoSrvg_Q-32" target="jYqa2oQGQ4DXmoSrvg_Q-25" edge="1">
          <mxGeometry relative="1" as="geometry">
            <mxPoint x="1095.04" y="1090" as="sourcePoint" />
            <mxPoint x="1055.04" y="1064" as="targetPoint" />
            <Array as="points" />
          </mxGeometry>
        </mxCell>
        <mxCell id="jYqa2oQGQ4DXmoSrvg_Q-37" value="" style="endArrow=none;html=1;rounded=0;entryX=1;entryY=0.5;entryDx=0;entryDy=0;exitX=0;exitY=0.75;exitDx=0;exitDy=0;" parent="1" source="jYqa2oQGQ4DXmoSrvg_Q-25" target="jYqa2oQGQ4DXmoSrvg_Q-31" edge="1">
          <mxGeometry relative="1" as="geometry">
            <mxPoint x="1095.04" y="1090" as="sourcePoint" />
            <mxPoint x="1033.04" y="1120" as="targetPoint" />
            <Array as="points" />
          </mxGeometry>
        </mxCell>
        <mxCell id="jYqa2oQGQ4DXmoSrvg_Q-43" value="" style="endArrow=none;html=1;rounded=0;exitX=0.593;exitY=0.99;exitDx=0;exitDy=0;exitPerimeter=0;shape=link;" parent="1" target="UdkjZhPED4S_4okrrKyf-87" edge="1">
          <mxGeometry relative="1" as="geometry">
            <mxPoint x="428.14000000000004" y="620" as="sourcePoint" />
            <mxPoint x="424.85" y="750" as="targetPoint" />
            <Array as="points" />
          </mxGeometry>
        </mxCell>
        <mxCell id="UdkjZhPED4S_4okrrKyf-87" value="Plan" style="whiteSpace=wrap;html=1;align=center;" parent="1" vertex="1">
          <mxGeometry x="364.36999999999995" y="600" width="100" height="40" as="geometry" />
        </mxCell>
        <mxCell id="jYqa2oQGQ4DXmoSrvg_Q-45" value="&lt;b style=&quot;&quot;&gt;&lt;font style=&quot;font-size: 19px;&quot;&gt;1&lt;/font&gt;&lt;/b&gt;" style="text;html=1;align=center;verticalAlign=middle;resizable=0;points=[];autosize=1;strokeColor=none;fillColor=none;fontSize=17;" parent="1" vertex="1">
          <mxGeometry x="482.00000000000006" y="185" width="30" height="40" as="geometry" />
        </mxCell>
        <mxCell id="jYqa2oQGQ4DXmoSrvg_Q-46" value="&lt;b style=&quot;&quot;&gt;&lt;font style=&quot;font-size: 19px;&quot;&gt;m&lt;/font&gt;&lt;/b&gt;" style="text;html=1;align=center;verticalAlign=middle;resizable=0;points=[];autosize=1;strokeColor=none;fillColor=none;fontSize=17;" parent="1" vertex="1">
          <mxGeometry x="316.4400000000001" y="185" width="40" height="40" as="geometry" />
        </mxCell>
        <mxCell id="jYqa2oQGQ4DXmoSrvg_Q-48" value="sends" style="shape=rhombus;perimeter=rhombusPerimeter;whiteSpace=wrap;html=1;align=center;" parent="1" vertex="1">
          <mxGeometry x="80" y="310" width="100" height="60" as="geometry" />
        </mxCell>
        <mxCell id="jYqa2oQGQ4DXmoSrvg_Q-54" value="MaterialRequest" style="whiteSpace=wrap;html=1;align=center;" parent="1" vertex="1">
          <mxGeometry x="111.52999999999986" y="999.9999999999999" width="100" height="40" as="geometry" />
        </mxCell>
        <mxCell id="jYqa2oQGQ4DXmoSrvg_Q-55" value="mat_req_name" style="ellipse;whiteSpace=wrap;html=1;align=center;" parent="1" vertex="1">
          <mxGeometry x="244.42000000000002" y="1035" width="104.91" height="35" as="geometry" />
        </mxCell>
        <mxCell id="jYqa2oQGQ4DXmoSrvg_Q-56" value="&lt;u&gt;mat_request_id&lt;/u&gt;" style="ellipse;whiteSpace=wrap;html=1;align=center;" parent="1" vertex="1">
          <mxGeometry x="245.89999999999998" y="980" width="110.54" height="40" as="geometry" />
        </mxCell>
        <mxCell id="jYqa2oQGQ4DXmoSrvg_Q-57" value="mat_count" style="ellipse;whiteSpace=wrap;html=1;align=center;" parent="1" vertex="1">
          <mxGeometry x="70" y="1060" width="99.83" height="30" as="geometry" />
        </mxCell>
        <mxCell id="jYqa2oQGQ4DXmoSrvg_Q-58" value="" style="endArrow=none;html=1;rounded=0;" parent="1" source="jYqa2oQGQ4DXmoSrvg_Q-54" target="jYqa2oQGQ4DXmoSrvg_Q-55" edge="1">
          <mxGeometry relative="1" as="geometry">
            <mxPoint x="347.37999999999994" y="867.87" as="sourcePoint" />
            <mxPoint x="349.37999999999994" y="807.87" as="targetPoint" />
            <Array as="points" />
          </mxGeometry>
        </mxCell>
        <mxCell id="jYqa2oQGQ4DXmoSrvg_Q-60" value="" style="endArrow=none;html=1;rounded=0;exitX=1;exitY=0;exitDx=0;exitDy=0;" parent="1" source="jYqa2oQGQ4DXmoSrvg_Q-54" target="jYqa2oQGQ4DXmoSrvg_Q-56" edge="1">
          <mxGeometry relative="1" as="geometry">
            <mxPoint x="187.37999999999997" y="1037.87" as="sourcePoint" />
            <mxPoint x="125.37999999999997" y="1067.87" as="targetPoint" />
            <Array as="points" />
          </mxGeometry>
        </mxCell>
        <mxCell id="jYqa2oQGQ4DXmoSrvg_Q-62" value="" style="endArrow=none;html=1;rounded=0;entryX=0.25;entryY=1;entryDx=0;entryDy=0;exitX=0.5;exitY=0;exitDx=0;exitDy=0;" parent="1" source="jYqa2oQGQ4DXmoSrvg_Q-57" target="jYqa2oQGQ4DXmoSrvg_Q-54" edge="1">
          <mxGeometry relative="1" as="geometry">
            <mxPoint x="1238.09" y="1078.87" as="sourcePoint" />
            <mxPoint x="1211.09" y="1062.87" as="targetPoint" />
            <Array as="points" />
          </mxGeometry>
        </mxCell>
        <mxCell id="jYqa2oQGQ4DXmoSrvg_Q-63" value="" style="endArrow=none;html=1;rounded=0;jumpStyle=arc;entryX=0;entryY=0.5;entryDx=0;entryDy=0;exitX=0.5;exitY=0;exitDx=0;exitDy=0;" parent="1" source="jYqa2oQGQ4DXmoSrvg_Q-48" target="UdkjZhPED4S_4okrrKyf-79" edge="1">
          <mxGeometry width="50" height="50" relative="1" as="geometry">
            <mxPoint x="40" y="340" as="sourcePoint" />
            <mxPoint x="938" y="500" as="targetPoint" />
            <Array as="points">
              <mxPoint x="130" y="40" />
              <mxPoint x="510" y="40" />
              <mxPoint x="510" y="170" />
            </Array>
          </mxGeometry>
        </mxCell>
        <mxCell id="jYqa2oQGQ4DXmoSrvg_Q-64" value="" style="endArrow=none;html=1;rounded=0;exitX=0.5;exitY=1;exitDx=0;exitDy=0;shape=link;entryX=0.167;entryY=-0.086;entryDx=0;entryDy=0;entryPerimeter=0;" parent="1" source="jYqa2oQGQ4DXmoSrvg_Q-48" target="jYqa2oQGQ4DXmoSrvg_Q-54" edge="1">
          <mxGeometry relative="1" as="geometry">
            <mxPoint x="998" y="540" as="sourcePoint" />
            <mxPoint x="97" y="1040" as="targetPoint" />
            <Array as="points" />
          </mxGeometry>
        </mxCell>
        <mxCell id="jYqa2oQGQ4DXmoSrvg_Q-65" value="" style="endArrow=none;html=1;rounded=0;exitX=0;exitY=0.5;exitDx=0;exitDy=0;entryX=1;entryY=0.5;entryDx=0;entryDy=0;" parent="1" source="UdkjZhPED4S_4okrrKyf-34" target="8up9FTdWz8j51L4QSD5t-56" edge="1">
          <mxGeometry relative="1" as="geometry">
            <mxPoint x="998" y="540" as="sourcePoint" />
            <mxPoint x="340" y="460" as="targetPoint" />
            <Array as="points" />
          </mxGeometry>
        </mxCell>
        <mxCell id="jYqa2oQGQ4DXmoSrvg_Q-66" value="&lt;b style=&quot;&quot;&gt;&lt;font style=&quot;font-size: 19px;&quot;&gt;m&lt;/font&gt;&lt;/b&gt;" style="text;html=1;align=center;verticalAlign=middle;resizable=0;points=[];autosize=1;strokeColor=none;fillColor=none;fontSize=17;" parent="1" vertex="1">
          <mxGeometry x="185.34000000000012" y="535" width="40" height="40" as="geometry" />
        </mxCell>
        <mxCell id="jYqa2oQGQ4DXmoSrvg_Q-67" value="&lt;b style=&quot;&quot;&gt;&lt;font style=&quot;font-size: 19px;&quot;&gt;m&lt;/font&gt;&lt;/b&gt;" style="text;html=1;align=center;verticalAlign=middle;resizable=0;points=[];autosize=1;strokeColor=none;fillColor=none;fontSize=17;" parent="1" vertex="1">
          <mxGeometry x="124.09000000000013" y="360" width="40" height="40" as="geometry" />
        </mxCell>
        <mxCell id="jYqa2oQGQ4DXmoSrvg_Q-68" value="&lt;b style=&quot;&quot;&gt;&lt;font style=&quot;font-size: 19px;&quot;&gt;1&lt;/font&gt;&lt;/b&gt;" style="text;html=1;align=center;verticalAlign=middle;resizable=0;points=[];autosize=1;strokeColor=none;fillColor=none;fontSize=17;" parent="1" vertex="1">
          <mxGeometry x="125.34000000000015" y="280" width="30" height="40" as="geometry" />
        </mxCell>
        <mxCell id="jYqa2oQGQ4DXmoSrvg_Q-70" value="Other_name" style="ellipse;whiteSpace=wrap;html=1;align=center;" parent="1" vertex="1">
          <mxGeometry x="175.63" y="1070" width="99.83" height="30" as="geometry" />
        </mxCell>
        <mxCell id="jYqa2oQGQ4DXmoSrvg_Q-71" value="" style="endArrow=none;html=1;rounded=0;entryX=0.75;entryY=1;entryDx=0;entryDy=0;" parent="1" source="jYqa2oQGQ4DXmoSrvg_Q-70" target="jYqa2oQGQ4DXmoSrvg_Q-54" edge="1">
          <mxGeometry relative="1" as="geometry">
            <mxPoint x="314.09" y="1088.87" as="sourcePoint" />
            <mxPoint x="282.09" y="1062.87" as="targetPoint" />
            <Array as="points" />
          </mxGeometry>
        </mxCell>
        <mxCell id="8up9FTdWz8j51L4QSD5t-5" value="MaterialAllocation&amp;nbsp;" style="whiteSpace=wrap;html=1;align=center;" parent="1" vertex="1">
          <mxGeometry x="718" y="730" width="109.09" height="40" as="geometry" />
        </mxCell>
        <mxCell id="8up9FTdWz8j51L4QSD5t-6" value="allocation_id" style="ellipse;whiteSpace=wrap;html=1;align=center;fontStyle=4;" parent="1" vertex="1">
          <mxGeometry x="648.8100000000001" y="670" width="100" height="40" as="geometry" />
        </mxCell>
        <mxCell id="8up9FTdWz8j51L4QSD5t-7" value="" style="endArrow=none;html=1;rounded=0;exitX=0.216;exitY=-0.012;exitDx=0;exitDy=0;exitPerimeter=0;" parent="1" source="8up9FTdWz8j51L4QSD5t-5" target="8up9FTdWz8j51L4QSD5t-6" edge="1">
          <mxGeometry relative="1" as="geometry">
            <mxPoint x="725.26" y="710" as="sourcePoint" />
            <mxPoint x="721.53" y="820" as="targetPoint" />
          </mxGeometry>
        </mxCell>
        <mxCell id="8up9FTdWz8j51L4QSD5t-8" value="allocation_&lt;br&gt;description" style="ellipse;whiteSpace=wrap;html=1;align=center;" parent="1" vertex="1">
          <mxGeometry x="771.1299999999999" y="670" width="95.46" height="40" as="geometry" />
        </mxCell>
        <mxCell id="8up9FTdWz8j51L4QSD5t-9" value="" style="endArrow=none;html=1;rounded=0;entryX=0.815;entryY=0.002;entryDx=0;entryDy=0;entryPerimeter=0;" parent="1" source="8up9FTdWz8j51L4QSD5t-8" target="8up9FTdWz8j51L4QSD5t-5" edge="1">
          <mxGeometry relative="1" as="geometry">
            <mxPoint x="491.53" y="1145" as="sourcePoint" />
            <mxPoint x="800.26" y="710" as="targetPoint" />
          </mxGeometry>
        </mxCell>
        <mxCell id="8up9FTdWz8j51L4QSD5t-10" value="" style="endArrow=none;html=1;rounded=0;exitX=0;exitY=0.5;exitDx=0;exitDy=0;entryX=1;entryY=0.5;entryDx=0;entryDy=0;shape=link;" parent="1" source="UdkjZhPED4S_4okrrKyf-208" target="8up9FTdWz8j51L4QSD5t-5" edge="1">
          <mxGeometry relative="1" as="geometry">
            <mxPoint x="1108" y="682" as="sourcePoint" />
            <mxPoint x="1065" y="760" as="targetPoint" />
          </mxGeometry>
        </mxCell>
        <mxCell id="8up9FTdWz8j51L4QSD5t-11" value="allocation_date" style="ellipse;whiteSpace=wrap;html=1;align=center;" parent="1" vertex="1">
          <mxGeometry x="1064.08" y="770" width="115.92" height="30" as="geometry" />
        </mxCell>
        <mxCell id="8up9FTdWz8j51L4QSD5t-12" value="" style="endArrow=none;html=1;rounded=0;exitX=0.243;exitY=0.05;exitDx=0;exitDy=0;entryX=1;entryY=0.5;entryDx=0;entryDy=0;exitPerimeter=0;" parent="1" source="8up9FTdWz8j51L4QSD5t-11" target="UdkjZhPED4S_4okrrKyf-208" edge="1">
          <mxGeometry relative="1" as="geometry">
            <mxPoint x="674.51" y="910" as="sourcePoint" />
            <mxPoint x="1016.98" y="890" as="targetPoint" />
          </mxGeometry>
        </mxCell>
        <mxCell id="8up9FTdWz8j51L4QSD5t-13" value="&lt;b style=&quot;&quot;&gt;&lt;font style=&quot;font-size: 19px;&quot;&gt;m&lt;/font&gt;&lt;/b&gt;" style="text;html=1;align=center;verticalAlign=middle;resizable=0;points=[];autosize=1;strokeColor=none;fillColor=none;fontSize=17;" parent="1" vertex="1">
          <mxGeometry x="900" y="720" width="40" height="40" as="geometry" />
        </mxCell>
        <mxCell id="8up9FTdWz8j51L4QSD5t-22" value="MaterialUpdation" style="whiteSpace=wrap;html=1;align=center;" parent="1" vertex="1">
          <mxGeometry x="1110.17" y="1030" width="100" height="40" as="geometry" />
        </mxCell>
        <mxCell id="8up9FTdWz8j51L4QSD5t-23" value="has" style="shape=rhombus;perimeter=rhombusPerimeter;whiteSpace=wrap;html=1;align=center;" parent="1" vertex="1">
          <mxGeometry x="930" y="1020" width="100" height="60" as="geometry" />
        </mxCell>
        <mxCell id="8up9FTdWz8j51L4QSD5t-24" value="" style="endArrow=none;html=1;rounded=0;exitX=0.5;exitY=0;exitDx=0;exitDy=0;shape=link;" parent="1" source="8up9FTdWz8j51L4QSD5t-23" edge="1">
          <mxGeometry width="50" height="50" relative="1" as="geometry">
            <mxPoint x="1005" y="895" as="sourcePoint" />
            <mxPoint x="978" y="920" as="targetPoint" />
          </mxGeometry>
        </mxCell>
        <mxCell id="8up9FTdWz8j51L4QSD5t-25" value="" style="endArrow=none;html=1;rounded=0;entryX=0;entryY=0.5;entryDx=0;entryDy=0;exitX=1;exitY=0.5;exitDx=0;exitDy=0;shape=link;" parent="1" source="8up9FTdWz8j51L4QSD5t-23" target="8up9FTdWz8j51L4QSD5t-22" edge="1">
          <mxGeometry width="50" height="50" relative="1" as="geometry">
            <mxPoint x="991" y="1030" as="sourcePoint" />
            <mxPoint x="990" y="930" as="targetPoint" />
          </mxGeometry>
        </mxCell>
        <mxCell id="8up9FTdWz8j51L4QSD5t-33" value="" style="endArrow=none;html=1;rounded=0;exitX=0.293;exitY=0.964;exitDx=0;exitDy=0;exitPerimeter=0;entryX=1;entryY=0.75;entryDx=0;entryDy=0;" parent="1" target="8up9FTdWz8j51L4QSD5t-22" edge="1">
          <mxGeometry relative="1" as="geometry">
            <mxPoint x="1256.0866899999996" y="1018.5600000000002" as="sourcePoint" />
            <mxPoint x="1198.84" y="1030" as="targetPoint" />
          </mxGeometry>
        </mxCell>
        <mxCell id="8up9FTdWz8j51L4QSD5t-35" value="mat_update&lt;br&gt;_date" style="ellipse;whiteSpace=wrap;html=1;align=center;" parent="1" vertex="1">
          <mxGeometry x="1073.3500000000001" y="1100" width="97.37" height="40" as="geometry" />
        </mxCell>
        <mxCell id="8up9FTdWz8j51L4QSD5t-36" value="" style="endArrow=none;html=1;rounded=0;entryX=0.25;entryY=1;entryDx=0;entryDy=0;" parent="1" source="8up9FTdWz8j51L4QSD5t-35" target="8up9FTdWz8j51L4QSD5t-22" edge="1">
          <mxGeometry relative="1" as="geometry">
            <mxPoint x="690.28" y="1096" as="sourcePoint" />
            <mxPoint x="1162.84" y="1070" as="targetPoint" />
          </mxGeometry>
        </mxCell>
        <mxCell id="8up9FTdWz8j51L4QSD5t-37" value="&lt;div&gt;&lt;u&gt;mat_updation&lt;/u&gt;&lt;/div&gt;&lt;div&gt;&lt;span style=&quot;font-size: 12px;&quot;&gt;&lt;u&gt;_id&lt;/u&gt;&lt;/span&gt;&lt;/div&gt;" style="ellipse;whiteSpace=wrap;html=1;align=center;" parent="1" vertex="1">
          <mxGeometry x="1130" y="940" width="120" height="40" as="geometry" />
        </mxCell>
        <mxCell id="8up9FTdWz8j51L4QSD5t-38" value="" style="endArrow=none;html=1;rounded=0;exitX=0.75;exitY=0;exitDx=0;exitDy=0;entryX=0.5;entryY=1;entryDx=0;entryDy=0;" parent="1" source="8up9FTdWz8j51L4QSD5t-22" target="8up9FTdWz8j51L4QSD5t-37" edge="1">
          <mxGeometry relative="1" as="geometry">
            <mxPoint x="1137.84" y="1030" as="sourcePoint" />
            <mxPoint x="1062.4938591072842" y="1131.854581423474" as="targetPoint" />
          </mxGeometry>
        </mxCell>
        <mxCell id="8up9FTdWz8j51L4QSD5t-39" value="mat_update_&lt;br&gt;quantity" style="ellipse;whiteSpace=wrap;html=1;align=center;" parent="1" vertex="1">
          <mxGeometry x="1210.17" y="1090" width="109.83" height="50" as="geometry" />
        </mxCell>
        <mxCell id="8up9FTdWz8j51L4QSD5t-40" value="" style="endArrow=none;html=1;rounded=0;entryX=0.75;entryY=1;entryDx=0;entryDy=0;" parent="1" source="8up9FTdWz8j51L4QSD5t-39" target="8up9FTdWz8j51L4QSD5t-22" edge="1">
          <mxGeometry relative="1" as="geometry">
            <mxPoint x="1241.28" y="1098" as="sourcePoint" />
            <mxPoint x="1180" y="1080" as="targetPoint" />
          </mxGeometry>
        </mxCell>
        <mxCell id="8up9FTdWz8j51L4QSD5t-42" value="mat_status" style="ellipse;whiteSpace=wrap;html=1;align=center;" parent="1" vertex="1">
          <mxGeometry x="1222.33" y="980.0000000000001" width="104.91" height="40" as="geometry" />
        </mxCell>
        <mxCell id="8up9FTdWz8j51L4QSD5t-43" value="&lt;b style=&quot;&quot;&gt;&lt;font style=&quot;font-size: 19px;&quot;&gt;1&lt;/font&gt;&lt;/b&gt;" style="text;html=1;align=center;verticalAlign=middle;resizable=0;points=[];autosize=1;strokeColor=none;fillColor=none;fontSize=17;" parent="1" vertex="1">
          <mxGeometry x="943.46" y="960" width="30" height="40" as="geometry" />
        </mxCell>
        <mxCell id="8up9FTdWz8j51L4QSD5t-47" value="&lt;b style=&quot;&quot;&gt;&lt;font style=&quot;font-size: 19px;&quot;&gt;m&lt;/font&gt;&lt;/b&gt;" style="text;html=1;align=center;verticalAlign=middle;resizable=0;points=[];autosize=1;strokeColor=none;fillColor=none;fontSize=17;" parent="1" vertex="1">
          <mxGeometry x="1035.08" y="1005" width="40" height="40" as="geometry" />
        </mxCell>
        <mxCell id="8up9FTdWz8j51L4QSD5t-48" value="sends" style="shape=rhombus;perimeter=rhombusPerimeter;whiteSpace=wrap;html=1;align=center;" parent="1" vertex="1">
          <mxGeometry x="1568" y="140" width="86" height="60" as="geometry" />
        </mxCell>
        <mxCell id="8up9FTdWz8j51L4QSD5t-49" value="" style="endArrow=none;html=1;rounded=0;exitX=0.5;exitY=1;exitDx=0;exitDy=0;shape=link;" parent="1" source="8up9FTdWz8j51L4QSD5t-48" edge="1">
          <mxGeometry relative="1" as="geometry">
            <mxPoint x="1560" y="560" as="sourcePoint" />
            <mxPoint x="1611" y="1000" as="targetPoint" />
            <Array as="points" />
          </mxGeometry>
        </mxCell>
        <mxCell id="8up9FTdWz8j51L4QSD5t-51" value="&lt;font style=&quot;font-size: 17px;&quot;&gt;m&lt;/font&gt;" style="text;html=1;align=center;verticalAlign=middle;resizable=0;points=[];autosize=1;strokeColor=none;fillColor=none;fontStyle=1" parent="1" vertex="1">
          <mxGeometry x="1568" y="200" width="40" height="30" as="geometry" />
        </mxCell>
        <mxCell id="8up9FTdWz8j51L4QSD5t-52" value="emp_request&lt;br&gt;_status" style="ellipse;whiteSpace=wrap;html=1;align=center;" parent="1" vertex="1">
          <mxGeometry x="1500" y="400" width="96" height="40" as="geometry" />
        </mxCell>
        <mxCell id="8up9FTdWz8j51L4QSD5t-53" value="" style="endArrow=none;html=1;rounded=0;entryX=0.5;entryY=0;entryDx=0;entryDy=0;" parent="1" target="vQQ2ORAMrimU4EYnoV-2-51" edge="1">
          <mxGeometry relative="1" as="geometry">
            <mxPoint x="1550" y="440" as="sourcePoint" />
            <mxPoint x="1544" y="370" as="targetPoint" />
            <Array as="points" />
          </mxGeometry>
        </mxCell>
        <mxCell id="8up9FTdWz8j51L4QSD5t-54" value="mat_request_status" style="ellipse;whiteSpace=wrap;html=1;align=center;" parent="1" vertex="1">
          <mxGeometry x="137.7199999999999" y="420" width="125.58" height="40" as="geometry" />
        </mxCell>
        <mxCell id="8up9FTdWz8j51L4QSD5t-55" value="" style="endArrow=none;html=1;rounded=0;exitX=0.5;exitY=0;exitDx=0;exitDy=0;" parent="1" source="8up9FTdWz8j51L4QSD5t-56" target="8up9FTdWz8j51L4QSD5t-54" edge="1">
          <mxGeometry relative="1" as="geometry">
            <mxPoint x="407" y="335" as="sourcePoint" />
            <mxPoint x="1315.66" y="335" as="targetPoint" />
            <Array as="points" />
          </mxGeometry>
        </mxCell>
        <mxCell id="8up9FTdWz8j51L4QSD5t-56" value="sends" style="shape=rhombus;perimeter=rhombusPerimeter;whiteSpace=wrap;html=1;align=center;" parent="1" vertex="1">
          <mxGeometry x="139.48" y="480" width="107.54" height="60" as="geometry" />
        </mxCell>
        <mxCell id="8up9FTdWz8j51L4QSD5t-60" value="" style="endArrow=none;html=1;rounded=0;entryX=0.5;entryY=1;entryDx=0;entryDy=0;" parent="1" target="8up9FTdWz8j51L4QSD5t-56" edge="1">
          <mxGeometry relative="1" as="geometry">
            <mxPoint x="193" y="1000" as="sourcePoint" />
            <mxPoint x="253" y="515" as="targetPoint" />
            <Array as="points" />
          </mxGeometry>
        </mxCell>
        <mxCell id="8up9FTdWz8j51L4QSD5t-61" value="&lt;font style=&quot;font-size: 17px;&quot;&gt;1&lt;/font&gt;" style="text;html=1;align=center;verticalAlign=middle;resizable=0;points=[];autosize=1;strokeColor=none;fillColor=none;fontStyle=1" parent="1" vertex="1">
          <mxGeometry x="217.02000000000004" y="480" width="30" height="30" as="geometry" />
        </mxCell>
        <mxCell id="8up9FTdWz8j51L4QSD5t-65" value="&lt;b style=&quot;&quot;&gt;&lt;font style=&quot;font-size: 19px;&quot;&gt;1&lt;/font&gt;&lt;/b&gt;" style="text;html=1;align=center;verticalAlign=middle;resizable=0;points=[];autosize=1;strokeColor=none;fillColor=none;fontSize=17;" parent="1" vertex="1">
          <mxGeometry x="657.0000000000001" y="610" width="30" height="40" as="geometry" />
        </mxCell>
        <mxCell id="8up9FTdWz8j51L4QSD5t-67" value="has" style="shape=rhombus;perimeter=rhombusPerimeter;whiteSpace=wrap;html=1;align=center;" parent="1" vertex="1">
          <mxGeometry x="427" y="987.13" width="95" height="60" as="geometry" />
        </mxCell>
        <mxCell id="8up9FTdWz8j51L4QSD5t-68" value="" style="endArrow=none;html=1;rounded=0;exitX=0;exitY=0.5;exitDx=0;exitDy=0;entryX=0.5;entryY=1;entryDx=0;entryDy=0;" parent="1" source="8up9FTdWz8j51L4QSD5t-67" target="vQQ2ORAMrimU4EYnoV-2-26" edge="1">
          <mxGeometry relative="1" as="geometry">
            <mxPoint x="374" y="785" as="sourcePoint" />
            <mxPoint x="460" y="830" as="targetPoint" />
          </mxGeometry>
        </mxCell>
        <mxCell id="8up9FTdWz8j51L4QSD5t-69" value="" style="endArrow=none;html=1;rounded=0;exitX=0;exitY=0.5;exitDx=0;exitDy=0;entryX=1;entryY=0.5;entryDx=0;entryDy=0;shape=link;" parent="1" source="vQQ2ORAMrimU4EYnoV-2-36" target="8up9FTdWz8j51L4QSD5t-67" edge="1">
          <mxGeometry relative="1" as="geometry">
            <mxPoint x="434" y="1000" as="sourcePoint" />
            <mxPoint x="434" y="900" as="targetPoint" />
            <Array as="points" />
          </mxGeometry>
        </mxCell>
        <mxCell id="8up9FTdWz8j51L4QSD5t-70" value="&lt;font style=&quot;font-size: 17px;&quot;&gt;1&lt;/font&gt;" style="text;html=1;align=center;verticalAlign=middle;resizable=0;points=[];autosize=1;strokeColor=none;fillColor=none;fontStyle=1" parent="1" vertex="1">
          <mxGeometry x="397" y="990" width="30" height="30" as="geometry" />
        </mxCell>
        <mxCell id="8up9FTdWz8j51L4QSD5t-71" value="&lt;b style=&quot;&quot;&gt;&lt;font style=&quot;font-size: 19px;&quot;&gt;m&lt;/font&gt;&lt;/b&gt;" style="text;html=1;align=center;verticalAlign=middle;resizable=0;points=[];autosize=1;strokeColor=none;fillColor=none;fontSize=17;" parent="1" vertex="1">
          <mxGeometry x="512.0000000000001" y="980" width="40" height="40" as="geometry" />
        </mxCell>
        <mxCell id="8up9FTdWz8j51L4QSD5t-73" value="sub_task_status" style="ellipse;whiteSpace=wrap;html=1;align=center;" parent="1" vertex="1">
          <mxGeometry x="740" y="842.5" width="104.27" height="40" as="geometry" />
        </mxCell>
        <mxCell id="8up9FTdWz8j51L4QSD5t-74" value="" style="endArrow=none;html=1;rounded=0;exitX=0;exitY=0.5;exitDx=0;exitDy=0;entryX=1;entryY=0.5;entryDx=0;entryDy=0;" parent="1" source="8up9FTdWz8j51L4QSD5t-73" target="vQQ2ORAMrimU4EYnoV-2-35" edge="1">
          <mxGeometry relative="1" as="geometry">
            <mxPoint x="374" y="785" as="sourcePoint" />
            <mxPoint x="326" y="785" as="targetPoint" />
          </mxGeometry>
        </mxCell>
        <mxCell id="8up9FTdWz8j51L4QSD5t-77" value="image_path" style="ellipse;whiteSpace=wrap;html=1;align=center;" parent="1" vertex="1">
          <mxGeometry x="246.07" y="785" width="95.46" height="30" as="geometry" />
        </mxCell>
        <mxCell id="8up9FTdWz8j51L4QSD5t-78" value="" style="endArrow=none;html=1;rounded=0;exitX=0.5;exitY=1;exitDx=0;exitDy=0;entryX=0.372;entryY=0.023;entryDx=0;entryDy=0;entryPerimeter=0;" parent="1" source="dErHnt-G6apdxBj5-Y7M-2" target="8up9FTdWz8j51L4QSD5t-77" edge="1">
          <mxGeometry relative="1" as="geometry">
            <mxPoint x="374" y="785" as="sourcePoint" />
            <mxPoint x="335" y="757" as="targetPoint" />
          </mxGeometry>
        </mxCell>
        <mxCell id="kAkcmkQp98ieJZ6T1iMy-1" value="user_request&lt;br&gt;_status" style="ellipse;whiteSpace=wrap;html=1;align=center;" parent="1" vertex="1">
          <mxGeometry x="1540" y="40" width="110" height="40" as="geometry" />
        </mxCell>
        <mxCell id="kAkcmkQp98ieJZ6T1iMy-2" value="" style="endArrow=none;html=1;rounded=0;exitX=0.616;exitY=0.992;exitDx=0;exitDy=0;exitPerimeter=0;" parent="1" source="kAkcmkQp98ieJZ6T1iMy-1" edge="1">
          <mxGeometry relative="1" as="geometry">
            <mxPoint x="1613" y="90" as="sourcePoint" />
            <mxPoint x="1610" y="140" as="targetPoint" />
            <Array as="points" />
          </mxGeometry>
        </mxCell>
        <mxCell id="kAkcmkQp98ieJZ6T1iMy-5" value="user_mat_request_status" style="ellipse;whiteSpace=wrap;html=1;align=center;" parent="1" vertex="1">
          <mxGeometry x="213.74" y="310" width="166.26" height="40" as="geometry" />
        </mxCell>
        <mxCell id="kAkcmkQp98ieJZ6T1iMy-6" value="" style="endArrow=none;html=1;rounded=0;exitX=1;exitY=0.5;exitDx=0;exitDy=0;" parent="1" source="jYqa2oQGQ4DXmoSrvg_Q-48" target="kAkcmkQp98ieJZ6T1iMy-5" edge="1">
          <mxGeometry relative="1" as="geometry">
            <mxPoint x="245.32999999999998" y="360" as="sourcePoint" />
            <mxPoint x="1402.99" y="215" as="targetPoint" />
            <Array as="points" />
          </mxGeometry>
        </mxCell>
        <mxCell id="3GSBathWTJ5cWXesPK5p-1" value="" style="endArrow=none;html=1;rounded=0;jumpStyle=arc;entryX=0;entryY=0.25;entryDx=0;entryDy=0;exitX=0.5;exitY=0;exitDx=0;exitDy=0;" parent="1" source="3GSBathWTJ5cWXesPK5p-3" target="UdkjZhPED4S_4okrrKyf-79" edge="1">
          <mxGeometry width="50" height="50" relative="1" as="geometry">
            <mxPoint x="40" y="350" as="sourcePoint" />
            <mxPoint x="725" y="180" as="targetPoint" />
            <Array as="points">
              <mxPoint x="55" y="20" />
              <mxPoint x="540" y="20" />
              <mxPoint x="540" y="160" />
            </Array>
          </mxGeometry>
        </mxCell>
        <mxCell id="3GSBathWTJ5cWXesPK5p-3" value="manage" style="shape=rhombus;perimeter=rhombusPerimeter;whiteSpace=wrap;html=1;align=center;" parent="1" vertex="1">
          <mxGeometry x="10" y="530" width="90" height="60" as="geometry" />
        </mxCell>
        <mxCell id="3GSBathWTJ5cWXesPK5p-4" value="" style="endArrow=none;html=1;rounded=0;entryX=0.5;entryY=1;entryDx=0;entryDy=0;shape=link;" parent="1" target="3GSBathWTJ5cWXesPK5p-3" edge="1">
          <mxGeometry relative="1" as="geometry">
            <mxPoint x="1110" y="1070" as="sourcePoint" />
            <mxPoint x="54.5" y="596.5" as="targetPoint" />
            <Array as="points">
              <mxPoint x="1030" y="1070" />
              <mxPoint x="1030" y="1120" />
              <mxPoint x="55" y="1120" />
            </Array>
          </mxGeometry>
        </mxCell>
        <mxCell id="3GSBathWTJ5cWXesPK5p-5" value="&lt;b style=&quot;&quot;&gt;&lt;font style=&quot;font-size: 19px;&quot;&gt;1&lt;/font&gt;&lt;/b&gt;" style="text;html=1;align=center;verticalAlign=middle;resizable=0;points=[];autosize=1;strokeColor=none;fillColor=none;fontSize=17;" parent="1" vertex="1">
          <mxGeometry x="20.000000000000142" y="495" width="30" height="40" as="geometry" />
        </mxCell>
        <mxCell id="3GSBathWTJ5cWXesPK5p-6" value="&lt;b style=&quot;&quot;&gt;&lt;font style=&quot;font-size: 19px;&quot;&gt;m&lt;/font&gt;&lt;/b&gt;" style="text;html=1;align=center;verticalAlign=middle;resizable=0;points=[];autosize=1;strokeColor=none;fillColor=none;fontSize=17;" parent="1" vertex="1">
          <mxGeometry x="20.000000000000142" y="590" width="40" height="40" as="geometry" />
        </mxCell>
        <mxCell id="3GSBathWTJ5cWXesPK5p-7" value="allocation_status1" style="ellipse;whiteSpace=wrap;html=1;align=center;" parent="1" vertex="1">
          <mxGeometry x="1100" y="720" width="110" height="30" as="geometry" />
        </mxCell>
        <mxCell id="3GSBathWTJ5cWXesPK5p-8" value="" style="endArrow=none;html=1;rounded=0;exitX=0;exitY=0.5;exitDx=0;exitDy=0;entryX=1;entryY=0.5;entryDx=0;entryDy=0;" parent="1" source="3GSBathWTJ5cWXesPK5p-7" target="UdkjZhPED4S_4okrrKyf-208" edge="1">
          <mxGeometry relative="1" as="geometry">
            <mxPoint x="712.3" y="850" as="sourcePoint" />
            <mxPoint x="1060" y="750" as="targetPoint" />
          </mxGeometry>
        </mxCell>
        <mxCell id="dErHnt-G6apdxBj5-Y7M-2" value="Images" style="whiteSpace=wrap;html=1;align=center;" vertex="1" parent="1">
          <mxGeometry x="225.33999999999995" y="720" width="100" height="40" as="geometry" />
        </mxCell>
        <mxCell id="dErHnt-G6apdxBj5-Y7M-3" value="image_id" style="ellipse;whiteSpace=wrap;html=1;align=center;fontStyle=4;" vertex="1" parent="1">
          <mxGeometry x="211.53" y="670" width="100" height="30" as="geometry" />
        </mxCell>
        <mxCell id="dErHnt-G6apdxBj5-Y7M-4" value="" style="endArrow=none;html=1;rounded=0;entryX=0.5;entryY=1;entryDx=0;entryDy=0;" edge="1" parent="1" source="dErHnt-G6apdxBj5-Y7M-2" target="dErHnt-G6apdxBj5-Y7M-3">
          <mxGeometry relative="1" as="geometry">
            <mxPoint x="399" y="610" as="sourcePoint" />
            <mxPoint x="377" y="584" as="targetPoint" />
          </mxGeometry>
        </mxCell>
        <mxCell id="dErHnt-G6apdxBj5-Y7M-7" value="" style="endArrow=none;html=1;rounded=0;exitX=0;exitY=0.5;exitDx=0;exitDy=0;entryX=1;entryY=0.5;entryDx=0;entryDy=0;shape=link;" edge="1" parent="1" source="vQQ2ORAMrimU4EYnoV-2-25" target="dErHnt-G6apdxBj5-Y7M-2">
          <mxGeometry relative="1" as="geometry">
            <mxPoint x="448" y="770" as="sourcePoint" />
            <mxPoint x="449" y="898" as="targetPoint" />
            <Array as="points" />
          </mxGeometry>
        </mxCell>
        <mxCell id="dErHnt-G6apdxBj5-Y7M-8" value="&lt;b style=&quot;&quot;&gt;&lt;font style=&quot;font-size: 19px;&quot;&gt;m&lt;/font&gt;&lt;/b&gt;" style="text;html=1;align=center;verticalAlign=middle;resizable=0;points=[];autosize=1;strokeColor=none;fillColor=none;fontSize=17;" vertex="1" parent="1">
          <mxGeometry x="334.0400000000002" y="697.5" width="40" height="40" as="geometry" />
        </mxCell>
      </root>
    </mxGraphModel>
  </diagram>
</mxfile>
